<svg width="256" height="263" viewBox="0 0 256 263" fill="none" xmlns="http://www.w3.org/2000/svg">
<g clip-path="url(#clip0_82_769)">
<path d="M-166.421 339.957C-193.893 316.738 -192.923 271.287 -197.124 233.741C-201.003 196.195 -210.052 166.307 -201.326 139.382C-192.923 112.458 -166.744 88.4976 -134.425 65.5254C-102.429 42.5531 -64.2916 20.816 -17.7516 12.1705C28.4652 3.52506 83.0851 7.9713 112.173 31.4376C141.583 55.1508 145.138 98.1311 168.732 139.382C192.002 180.881 234.986 220.403 228.846 252.02C222.705 283.391 167.116 306.61 116.374 323.901C65.9558 341.439 19.739 353.049 -31.3258 358.483C-82.3905 363.917 -138.626 362.929 -166.421 339.957Z" fill="white"/>
</g>
<defs>
<clipPath id="clip0_82_769">
<rect width="461" height="379" fill="white" transform="matrix(-1 0 0 -1 256 379)"/>
</clipPath>
</defs>
</svg>
