<svg width="32" height="32" viewBox="0 0 32 32" fill="none" xmlns="http://www.w3.org/2000/svg">
<path d="M20.0805 25.8533C24.2405 26.2533 26.4538 24.3066 27.5738 19.4933L28.8805 13.9199C30.1871 8.3466 28.4805 5.5866 22.8938 4.27993L20.6671 3.75993C16.2138 2.7066 13.5605 3.57326 12.0005 6.79993M20.0805 25.8533C19.4138 25.7999 18.6938 25.6799 17.9205 25.4933L15.6805 24.9599C10.1205 23.6399 8.40046 20.8933 9.70712 15.3199L11.0138 9.73326C11.2805 8.59993 11.6005 7.61326 12.0005 6.79993M20.0805 25.8533C19.2538 26.4133 18.2138 26.8799 16.9471 27.2933L14.8405 27.9866C9.54712 29.6933 6.76046 28.2666 5.04046 22.9733L3.33379 17.7066C1.62712 12.4133 3.04045 9.61326 8.33379 7.9066L10.4405 7.21326C10.9871 7.03993 11.5071 6.89326 12.0005 6.79993M16.8538 11.3733L23.3205 13.0133M15.5471 16.5333L19.4138 17.5199" stroke="#292D32" stroke-width="1.5" stroke-linecap="round" stroke-linejoin="round"/>
</svg>
