<svg width="27" height="26" viewBox="0 0 27 26" fill="none" xmlns="http://www.w3.org/2000/svg">
<g clip-path="url(#clip0_27_169)">
<path fill-rule="evenodd" clip-rule="evenodd" d="M8.38915 1.07184C10.6596 0.12441 13.1567 -0.203911 15.6077 0.122749C18.0588 0.449408 20.3694 1.41848 22.2874 2.92409C24.2048 4.42947 25.656 6.41331 26.482 8.65893C27.0016 10.0661 26.7705 11.6778 25.8745 12.8968C24.9787 14.1154 23.4777 14.8609 21.9271 14.8571H18.3194C17.6308 14.8553 16.964 15.0901 16.4391 15.5193C15.9141 15.9485 15.5654 16.5439 15.4556 17.1986C15.3458 17.8533 15.4821 18.5242 15.84 19.0907C16.1979 19.6573 16.7539 20.0822 17.4082 20.2893C17.4198 20.293 17.4315 20.2969 17.443 20.301C18.5038 20.6806 19.2458 21.6045 19.3172 22.6887C19.4728 23.9343 18.6289 25.1786 17.369 25.5194C16.1918 25.8414 14.9736 26.0032 13.7498 26C11.2758 25.9987 8.84967 25.3428 6.7365 24.1039C2.4676 21.601 -0.0554133 16.9052 0.289104 12.1039C0.63362 7.30256 3.80335 2.98549 8.38915 1.07184ZM8.67919 13C10.2769 13 11.572 11.7528 11.572 10.2143C11.572 8.67577 10.2769 7.42857 8.67919 7.42857C7.0815 7.42857 5.78633 8.67577 5.78633 10.2143C5.78633 11.7528 7.0815 13 8.67919 13ZM20.2504 7.42948C20.2504 8.96799 18.9552 10.2152 17.3575 10.2152C15.7598 10.2152 14.4647 8.96799 14.4647 7.42948C14.4647 5.89097 15.7598 4.64377 17.3575 4.64377C18.9552 4.64377 20.2504 5.89097 20.2504 7.42948ZM8.67895 19.4991C9.74407 19.4991 10.6075 18.6676 10.6075 17.6419C10.6075 16.6163 9.74407 15.7848 8.67895 15.7848C7.61382 15.7848 6.75038 16.6163 6.75038 17.6419C6.75038 18.6676 7.61382 19.4991 8.67895 19.4991Z" fill="black"/>
</g>
<defs>
<clipPath id="clip0_27_169">
<rect width="27" height="26" fill="white"/>
</clipPath>
</defs>
</svg>
