<svg width="20" height="20" viewBox="0 0 20 20" fill="none" xmlns="http://www.w3.org/2000/svg">
<g clip-path="url(#clip0_27_173)">
<path fill-rule="evenodd" clip-rule="evenodd" d="M19.158 0.848129C18.8773 0.566941 18.5423 0.346764 18.1737 0.2012C17.8053 0.0556351 17.4111 -0.0122268 17.0156 0.00180607C16.6203 0.0126364 16.2314 0.10497 15.8729 0.273113C15.5143 0.441256 15.1939 0.681643 14.931 0.979454L7.33241 9.48314C8.0061 9.77987 8.61921 10.1997 9.13996 10.7218C9.70921 11.2924 10.1561 11.9731 10.4534 12.7223C10.4687 12.7609 10.4836 12.7996 10.4981 12.8385L19.0277 5.10891C19.3214 4.84569 19.5589 4.52493 19.7257 4.16619C19.8924 3.80746 19.985 3.41826 19.9976 3.0223C20.0136 2.62117 19.9473 2.22106 19.8027 1.84696C19.6583 1.47286 19.4389 1.13283 19.158 0.848129ZM7.70273 17.9984L7.72851 17.9726C5.70807 19.9799 2.41109 20.7406 0.238116 19.1263C-0.0717726 18.896 -0.0646065 18.4517 0.175263 18.1493C1.22427 16.8264 1.12654 15.8189 1.03596 14.8851C0.947674 13.975 0.866186 13.1349 1.85987 12.1412C2.23613 11.7221 2.69391 11.3841 3.20523 11.1479C3.71656 10.9116 4.27067 10.7822 4.83373 10.7673C5.39679 10.7525 5.95694 10.8527 6.47999 11.0617C7.00301 11.2707 7.47794 11.5841 7.87574 11.9829C8.27353 12.3817 8.58583 12.8574 8.79356 13.3809C9.00127 13.9044 9.10006 14.4649 9.08387 15.0279C9.06767 15.5909 8.93684 16.1447 8.69937 16.6554C8.4619 17.1661 8.12277 17.6231 7.70273 17.9984Z" fill="black"/>
</g>
<defs>
<clipPath id="clip0_27_173">
<rect width="20" height="20" fill="white"/>
</clipPath>
</defs>
</svg>
