<svg width="354" height="264" viewBox="0 0 354 264" fill="none" xmlns="http://www.w3.org/2000/svg">
<path d="M353.854 231.703H0V231.88H353.854V231.703Z" fill="#EBEBEB"/>
<path d="M318.398 243.09H294.959V243.267H318.398V243.09Z" fill="#EBEBEB"/>
<path d="M234.408 245.015H228.258V245.192H234.408V245.015Z" fill="#EBEBEB"/>
<path d="M294.251 236.523H280.67V236.7H294.251V236.523Z" fill="#EBEBEB"/>
<path d="M67.6928 237.712H37.127V237.889H67.6928V237.712Z" fill="#EBEBEB"/>
<path d="M78.4778 237.712H73.998V237.889H78.4778V237.712Z" fill="#EBEBEB"/>
<path d="M159.341 240.698H93.043V240.875H159.341V240.698Z" fill="#EBEBEB"/>
<path d="M167.726 200.14H31.0749C30.0044 200.138 28.9784 199.711 28.2221 198.954C27.4658 198.196 27.041 197.169 27.041 196.099V4.00562C27.0503 2.94125 27.4792 1.92353 28.2345 1.17353C28.9898 0.423533 30.0105 0.00182333 31.0749 0H167.726C168.798 0 169.826 0.425748 170.584 1.18358C171.341 1.94142 171.767 2.96927 171.767 4.04101V196.099C171.767 197.17 171.341 198.198 170.584 198.956C169.826 199.714 168.798 200.14 167.726 200.14ZM31.0749 0.141542C30.0514 0.143417 29.0703 0.55135 28.3472 1.2758C27.6241 2.00026 27.2179 2.98203 27.2179 4.00562V196.099C27.2179 197.122 27.6241 198.104 28.3472 198.828C29.0703 199.553 30.0514 199.961 31.0749 199.963H167.726C168.75 199.961 169.732 199.553 170.456 198.829C171.181 198.105 171.588 197.123 171.59 196.099V4.00562C171.588 2.98138 171.181 1.99962 170.456 1.27537C169.732 0.55112 168.75 0.143413 167.726 0.141542H31.0749Z" fill="#EBEBEB"/>
<path d="M320.811 200.14H184.152C183.081 200.138 182.054 199.711 181.297 198.954C180.54 198.197 180.113 197.17 180.111 196.099V4.00562C180.122 2.9406 180.553 1.9229 181.309 1.17309C182.066 0.423286 183.087 0.00180344 184.152 0H320.811C321.874 0.00368326 322.893 0.426216 323.647 1.17602C324.4 1.92582 324.828 2.94247 324.838 4.00562V196.099C324.838 197.168 324.414 198.194 323.659 198.951C322.904 199.709 321.88 200.136 320.811 200.14ZM184.152 0.141542C183.128 0.143413 182.146 0.55112 181.422 1.27537C180.698 1.99962 180.29 2.98138 180.288 4.00562V196.099C180.29 197.123 180.698 198.105 181.422 198.829C182.146 199.553 183.128 199.961 184.152 199.963H320.811C321.835 199.961 322.817 199.553 323.541 198.829C324.265 198.105 324.673 197.123 324.675 196.099V4.00562C324.673 2.98138 324.265 1.99962 323.541 1.27537C322.817 0.55112 321.835 0.143413 320.811 0.141542H184.152Z" fill="#EBEBEB"/>
<path d="M67.5866 110.969H49.5684V118.633H67.5866V110.969Z" fill="#F0F0F0"/>
<path d="M89.3913 110.969H71.373V118.633H89.3913V110.969Z" fill="#F0F0F0"/>
<path d="M111.188 110.969H93.1699V118.633H111.188V110.969Z" fill="#F0F0F0"/>
<path d="M56.6803 121.641H38.6621V129.305H56.6803V121.641Z" fill="#F0F0F0"/>
<path d="M78.485 121.641H60.4668V129.305H78.485V121.641Z" fill="#F0F0F0"/>
<path d="M100.29 121.641H82.2715V129.305H100.29V121.641Z" fill="#F0F0F0"/>
<path d="M122.094 121.641H104.076V129.305H122.094V121.641Z" fill="#F0F0F0"/>
<path d="M45.7819 132.313H27.7637V139.977H45.7819V132.313Z" fill="#F0F0F0"/>
<path d="M67.5866 132.313H49.5684V139.977H67.5866V132.313Z" fill="#F0F0F0"/>
<path d="M89.3913 132.313H71.373V139.977H89.3913V132.313Z" fill="#F0F0F0"/>
<path d="M111.188 132.313H93.1699V139.977H111.188V132.313Z" fill="#F0F0F0"/>
<path d="M132.993 132.313H114.975V139.977H132.993V132.313Z" fill="#F0F0F0"/>
<path d="M56.6803 142.985H38.6621V150.65H56.6803V142.985Z" fill="#F0F0F0"/>
<path d="M78.485 142.985H60.4668V150.65H78.485V142.985Z" fill="#F0F0F0"/>
<path d="M100.29 142.985H82.2715V150.65H100.29V142.985Z" fill="#F0F0F0"/>
<path d="M122.094 142.985H104.076V150.65H122.094V142.985Z" fill="#F0F0F0"/>
<path d="M242.524 30.5518H224.506V38.2162H242.524V30.5518Z" fill="#F0F0F0"/>
<path d="M264.321 30.5518H246.303V38.2162H264.321V30.5518Z" fill="#F0F0F0"/>
<path d="M231.618 41.2239H213.6V48.8884H231.618V41.2239Z" fill="#F0F0F0"/>
<path d="M253.423 41.2239H235.404V48.8884H253.423V41.2239Z" fill="#F0F0F0"/>
<path d="M297.032 41.2239H279.014V48.8884H297.032V41.2239Z" fill="#F0F0F0"/>
<path d="M318.829 41.2239H300.811V48.8884H318.829V41.2239Z" fill="#F0F0F0"/>
<path d="M242.524 51.8962H224.506V59.5607H242.524V51.8962Z" fill="#F0F0F0"/>
<path d="M264.321 51.8962H246.303V59.5607H264.321V51.8962Z" fill="#F0F0F0"/>
<path d="M307.93 51.8962H289.912V59.5607H307.93V51.8962Z" fill="#F0F0F0"/>
<path d="M93.6999 9.77344H75.6816V17.4379H93.6999V9.77344Z" fill="#F0F0F0"/>
<path d="M115.505 9.77344H97.4863V17.4379H115.505V9.77344Z" fill="#F0F0F0"/>
<path d="M82.7956 20.4456H64.7773V28.11H82.7956V20.4456Z" fill="#F0F0F0"/>
<path d="M104.598 20.4456H86.5801V28.11H104.598V20.4456Z" fill="#F0F0F0"/>
<path d="M126.403 20.4456H108.385V28.11H126.403V20.4456Z" fill="#F0F0F0"/>
<path d="M71.8952 31.1179H53.877V38.7824H71.8952V31.1179Z" fill="#F0F0F0"/>
<path d="M93.6999 31.1179H75.6816V38.7824H93.6999V31.1179Z" fill="#F0F0F0"/>
<path d="M115.505 31.1179H97.4863V38.7824H115.505V31.1179Z" fill="#F0F0F0"/>
<path d="M82.7956 41.79H64.7773V49.4545H82.7956V41.79Z" fill="#F0F0F0"/>
<path d="M104.598 41.79H86.5801V49.4545H104.598V41.79Z" fill="#F0F0F0"/>
<path d="M242.489 98.3713H224.471V106.036H242.489V98.3713Z" fill="#F0F0F0"/>
<path d="M264.294 98.3713H246.275V106.036H264.294V98.3713Z" fill="#F0F0F0"/>
<path d="M187.981 109.043H169.963V116.708H187.981V109.043Z" fill="#F0F0F0"/>
<path d="M231.59 109.043H213.572V116.708H231.59V109.043Z" fill="#F0F0F0"/>
<path d="M253.395 109.043H235.377V116.708H253.395V109.043Z" fill="#F0F0F0"/>
<path d="M177.083 119.716H159.064V127.38H177.083V119.716Z" fill="#F0F0F0"/>
<path d="M198.887 119.716H180.869V127.38H198.887V119.716Z" fill="#F0F0F0"/>
<path d="M242.489 119.716H224.471V127.38H242.489V119.716Z" fill="#F0F0F0"/>
<path d="M264.294 119.716H246.275V127.38H264.294V119.716Z" fill="#F0F0F0"/>
<path d="M231.59 130.388H213.572V138.052H231.59V130.388Z" fill="#F0F0F0"/>
<path d="M253.395 130.388H235.377V138.052H253.395V130.388Z" fill="#F0F0F0"/>
<path d="M251.745 169.609H233.727V177.274H251.745V169.609Z" fill="#F0F0F0"/>
<path d="M273.549 169.609H255.531V177.274H273.549V169.609Z" fill="#F0F0F0"/>
<path d="M295.354 169.609H277.336V177.274H295.354V169.609Z" fill="#F0F0F0"/>
<path d="M317.153 169.609H299.135V177.274H317.153V169.609Z" fill="#F0F0F0"/>
<path d="M240.846 180.281H222.828V187.946H240.846V180.281Z" fill="#F0F0F0"/>
<path d="M262.645 180.281H244.627V187.946H262.645V180.281Z" fill="#F0F0F0"/>
<path d="M306.253 180.281H288.234V187.946H306.253V180.281Z" fill="#F0F0F0"/>
<path d="M229.942 190.954H211.924V198.618H229.942V190.954Z" fill="#F0F0F0"/>
<path d="M251.745 190.954H233.727V198.618H251.745V190.954Z" fill="#F0F0F0"/>
<path d="M273.549 190.954H255.531V198.618H273.549V190.954Z" fill="#F0F0F0"/>
<path d="M240.846 201.626H222.828V209.29H240.846V201.626Z" fill="#F0F0F0"/>
<path d="M262.645 201.626H244.627V209.29H262.645V201.626Z" fill="#F0F0F0"/>
<path d="M284.448 201.626H266.43V209.29H284.448V201.626Z" fill="#F0F0F0"/>
<path d="M128.485 169.114H110.467V176.778H128.485V169.114Z" fill="#F0F0F0"/>
<path d="M150.29 169.114H132.271V176.778H150.29V169.114Z" fill="#F0F0F0"/>
<path d="M172.092 169.114H154.074V176.778H172.092V169.114Z" fill="#F0F0F0"/>
<path d="M117.585 179.786H99.5664V187.451H117.585V179.786Z" fill="#F0F0F0"/>
<path d="M139.389 179.786H121.371V187.451H139.389V179.786Z" fill="#F0F0F0"/>
<path d="M161.194 179.786H143.176V187.451H161.194V179.786Z" fill="#F0F0F0"/>
<path d="M182.993 179.786H164.975V187.451H182.993V179.786Z" fill="#F0F0F0"/>
<path d="M106.686 190.458H88.668V198.123H106.686V190.458Z" fill="#F0F0F0"/>
<path d="M128.485 190.458H110.467V198.123H128.485V190.458Z" fill="#F0F0F0"/>
<path d="M150.29 190.458H132.271V198.123H150.29V190.458Z" fill="#F0F0F0"/>
<path d="M172.092 190.458H154.074V198.123H172.092V190.458Z" fill="#F0F0F0"/>
<path d="M117.585 201.13H99.5664V208.795H117.585V201.13Z" fill="#F0F0F0"/>
<path d="M139.389 201.13H121.371V208.795H139.389V201.13Z" fill="#F0F0F0"/>
<path d="M161.194 201.13H143.176V208.795H161.194V201.13Z" fill="#F0F0F0"/>
<path d="M182.993 201.13H164.975V208.795H182.993V201.13Z" fill="#F0F0F0"/>
<path d="M235.377 232.086H158.145L153.566 137.663H230.791L235.377 232.086Z" fill="#E0E0E0"/>
<path d="M229.694 227.082H163.34L159.242 142.667H225.597L229.694 227.082Z" fill="#EBEBEB"/>
<path d="M226.764 223.565H165.93L162.172 146.184H223.006L226.764 223.565Z" fill="#E6E6E6"/>
<path d="M53.9842 211.753C53.9842 211.753 49.9928 203.034 54.5575 194.435C59.1222 185.837 60.4527 183.82 57.5369 182.043C54.6212 180.267 53.2907 188.922 53.2907 188.922C53.2907 188.922 50.8349 182.978 52.859 176.757C54.883 170.536 56.1569 160.409 53.3898 159.319C50.6226 158.229 52.8661 171.973 50.4598 176.637C49.2414 173.351 48.4563 169.92 48.1244 166.431C47.7918 161.435 48.3155 153.459 46.1287 151.407C43.9419 149.354 42.5406 150.777 44.7133 161.81C45.9997 168.398 46.7101 175.085 46.8364 181.796C46.8364 181.796 42.0947 167.33 38.9101 166.934C35.7254 166.538 35.7254 171.18 38.4501 175.257C41.1747 179.333 46.433 186.58 47.2964 190.345C47.2964 190.345 42.0877 179.46 37.3885 182.794C32.6893 186.127 41.4649 192.702 45.3714 195.087C49.278 197.472 51.9743 212.312 51.9743 212.312L53.9842 211.753Z" fill="#E0E0E0"/>
<path d="M50.8355 215.334C50.8355 215.334 54.7278 206.552 50.057 198.024C45.3861 189.496 44.0344 187.486 46.9289 185.681C49.8234 183.877 51.253 192.496 51.253 192.496C51.253 192.496 53.638 186.516 51.5361 180.324C49.4342 174.131 48.0471 164.047 50.8284 162.893C53.6097 161.739 51.5361 175.526 53.9635 180.168C55.1471 176.866 55.8964 173.423 56.1928 169.928C56.4617 164.924 55.846 156.955 58.0116 154.875C60.1772 152.794 61.5501 154.167 59.5756 165.25C58.363 171.856 57.7284 178.555 57.679 185.271C57.679 185.271 62.2508 170.734 65.4638 170.267C68.6768 169.8 68.698 174.514 66.0158 178.583C63.3336 182.652 58.1107 190.048 57.3251 193.806C57.3251 193.806 62.4065 182.843 67.1269 186.106C71.8473 189.368 63.1708 196.077 59.2926 198.512C55.4143 200.946 52.9232 215.879 52.9232 215.879L50.8355 215.334Z" fill="#EBEBEB"/>
<path d="M68.7884 209.071H36.623L39.2274 232.086H66.184L68.7884 209.071Z" fill="#EBEBEB"/>
<path d="M295.822 209.191C295.936 208.484 298.406 191.371 293.445 185.476C292.951 184.854 292.325 184.349 291.613 183.998C290.901 183.647 290.12 183.458 289.326 183.445C279.312 183.211 277.939 191.23 277.932 191.336L279.106 191.52C279.156 191.23 280.345 184.443 289.297 184.641C289.922 184.647 290.537 184.794 291.097 185.071C291.657 185.348 292.148 185.748 292.532 186.24C297.153 191.732 294.655 208.837 294.655 209.014L295.822 209.191Z" fill="#EBEBEB"/>
<path d="M296.458 208.413L297.654 208.37C297.654 208.215 297.258 192.624 304.936 189.404C312.466 186.255 315.849 192.737 315.991 193.013L317.052 192.497C317.01 192.419 313.039 184.712 304.469 188.321C296.033 191.838 296.437 207.733 296.458 208.413Z" fill="#EBEBEB"/>
<path d="M296.423 209.637C296.423 209.382 296.493 184.733 301.299 177.521C305.92 170.593 313.365 173.855 313.677 173.983L314.172 172.893C314.087 172.858 305.495 169.064 300.308 176.842C295.297 184.351 295.227 208.59 295.227 209.616L296.423 209.637Z" fill="#EBEBEB"/>
<path d="M287.923 184.039C287.923 184.039 292.297 185.653 290.995 189.453C289.693 193.254 275.864 199.524 275.864 199.524C275.864 199.524 270.075 194.216 275.39 185.582C280.705 176.948 287.803 181.315 287.923 184.039Z" fill="#E0E0E0"/>
<path d="M301.518 176.219C301.518 176.219 298.411 175.886 298.687 173.997C298.963 172.107 310.754 167.238 317.725 175.108C317.725 175.108 313.266 182.78 306.805 182.893C300.343 183.006 301.518 176.219 301.518 176.219Z" fill="#E0E0E0"/>
<path d="M304.703 188.852C304.703 188.852 302.579 187.125 304.872 186.283C307.165 185.441 318.531 185.674 318.652 196.898C318.652 196.898 305.439 199.099 303.79 194.818C302.141 190.536 304.703 188.852 304.703 188.852Z" fill="#E0E0E0"/>
<path d="M285.574 232.086H306.077L308.292 209.63H283.359L285.574 232.086Z" fill="#EBEBEB"/>
<path d="M282.269 212.114H309.389V207.16H282.269V212.114Z" fill="#E0E0E0"/>
<path d="M176.926 263.664C252.709 263.664 314.144 260.077 314.144 255.652C314.144 251.228 252.709 247.641 176.926 247.641C101.143 247.641 39.709 251.228 39.709 255.652C39.709 260.077 101.143 263.664 176.926 263.664Z" fill="#F5F5F5"/>
<path d="M186.177 54.6492C185.738 54.4935 185.271 54.352 184.762 54.1821C185.13 53.7362 185.519 53.3753 185.392 52.7667C185.236 52.8445 185.108 52.9224 184.882 53.0639C185.073 52.703 185.2 52.4341 185.363 52.1014C185.144 51.9678 184.905 51.8699 184.656 51.8113C183.95 51.7269 183.238 51.7269 182.532 51.8113C178.696 52.4434 174.911 53.3588 171.209 54.5501C170.211 54.8757 169.206 55.1446 168.173 55.4277L168.647 55.1021C168.131 55.3498 168.647 54.7483 168.343 54.7341C168.003 54.8686 167.635 54.9818 167.267 55.1304L168.194 55.3923L165.363 56.5105L163.842 57.0059C163.148 57.1802 162.426 57.2138 161.719 57.1049C161.443 57.2536 161.011 57.4376 160.622 57.6357C160.652 57.6849 160.669 57.7409 160.671 57.7985C160.855 57.7419 161.046 57.7065 161.28 57.6428C161.237 57.7065 161.216 57.7631 161.195 57.7702C159.497 58.5628 157.826 59.3554 156.135 60.1835C154.649 60.8912 153.184 61.5989 151.726 62.3066C146.814 64.8548 142.099 67.7669 137.621 71.0185C135.814 72.2913 134.089 73.6764 132.455 75.1656C132.023 75.569 131.599 76.022 131.146 76.482C131.74 77.0764 131.018 77.3878 131.004 77.8337C130.316 77.9248 129.617 77.7721 129.03 77.402C128.887 76.8908 128.883 76.3505 129.02 75.8377C129.157 75.3248 129.429 74.8581 129.808 74.4862C130.643 73.6582 131.471 72.809 132.37 72.0588C134.129 70.5322 135.98 69.1142 137.911 67.8126C138.567 67.3516 139.044 66.6795 139.263 65.9088C139.73 64.366 140.204 62.8586 140.679 61.3441C141.018 60.2118 141.337 59.0865 141.676 57.9542C141.751 57.7772 141.836 57.6047 141.931 57.4376C141.953 57.14 142.008 56.8457 142.094 56.56C143.467 51.691 144.861 46.8007 146.262 41.9317C146.531 41.0258 146.885 40.1412 147.154 39.2141C147.791 37.0131 148.407 34.8122 148.987 32.5899C149.228 31.6982 149.355 30.7641 149.596 29.837C150.247 27.1901 150.954 24.5362 151.549 21.8682C151.903 20.29 152.136 18.6764 152.356 17.0982C152.412 16.7585 152.71 16.5674 152.618 16.1428L153.106 16.9496C153.255 16.5108 153.028 15.9659 153.382 15.5767C153.615 15.6757 153.799 15.789 154.012 15.8668C154.169 16.0833 154.278 16.3318 154.329 16.5946C154.381 16.8575 154.374 17.1285 154.309 17.3884C154.018 19.8357 153.535 22.2564 152.865 24.6282C151.28 30.7617 149.652 36.8551 147.982 42.9083C146.715 47.565 145.385 52.1722 144.033 56.8148C143.212 59.6456 142.342 62.4764 141.457 65.378C142.094 65.4134 142.412 64.8119 142.986 64.7482C143.073 64.8392 143.153 64.9361 143.226 65.0383C143.892 64.5429 144.536 64.0829 145.173 63.6229C146.302 63.1006 147.356 62.4294 148.308 61.6272C148.386 61.5847 148.35 61.4007 148.378 61.2309C151.153 59.7022 154.04 58.301 156.963 56.9846C159.886 55.6683 162.886 54.628 165.922 53.5806C168.936 52.5126 172.008 51.6148 175.123 50.8913L173.799 51.599V51.6839C174.295 51.5211 174.776 51.415 175.215 51.231C176.262 50.863 177.338 50.4525 178.35 50.0916C178.866 49.9398 179.398 49.8448 179.935 49.8085C180.806 49.7235 181.655 49.6669 182.539 49.6599C183.675 49.5408 184.821 49.729 185.859 50.2048C185.958 50.8276 186.616 50.8063 187.026 51.0965C187.805 52.7525 187.486 54.0476 186.177 54.6492ZM141.754 60.1056C141.988 59.8438 142.221 59.589 142.023 59.2068L141.754 60.1056ZM141.846 57.4092C141.902 57.6332 141.973 57.8531 142.059 58.0674C142.309 57.4427 142.427 56.7728 142.405 56.1C142.179 56.6166 142.03 56.9917 141.846 57.4092ZM148.11 63.7008C147.444 63.3398 147.402 63.3115 147.069 63.7574C146.76 64.1675 146.357 64.4975 145.894 64.7199C145.717 64.8048 145.541 64.9393 145.314 65.0596C145.406 65.1303 145.47 65.1728 145.498 65.1657C146.361 64.6986 147.204 64.2032 148.11 63.6937V63.7008ZM160.353 57.6923L158.824 58.301C159.108 58.3173 159.392 58.2713 159.656 58.1661C159.92 58.061 160.158 57.8993 160.353 57.6923ZM168.138 54.3661C166.666 54.3237 165.462 55.0738 164.203 55.6612C165.568 55.3785 166.897 54.9441 168.166 54.3661H168.138ZM172.54 52.3704C172.072 52.0307 171.973 52.5968 171.697 52.6181C171.54 52.6245 171.386 52.6637 171.244 52.7332C171.103 52.8026 170.978 52.9008 170.876 53.0215C171.408 52.9241 171.931 52.7845 172.44 52.6039C172.497 52.5898 172.504 52.4765 172.54 52.3704ZM182.242 51.4999C182.242 51.422 182.193 51.3725 182.179 51.2876C179.391 51.7409 176.645 52.4226 173.969 53.3258C174.662 53.2114 175.347 53.0554 176.021 52.8587C177.058 52.5305 178.115 52.2681 179.185 52.0731C179.666 51.9953 180.183 51.9174 180.685 51.8042C181.188 51.691 181.733 51.599 182.242 51.4928V51.4999ZM184.592 51.1531C184.195 50.9337 183.813 50.778 183.396 51.0965L184.592 51.1531ZM185.908 52.3208C185.908 52.7313 185.908 53.1205 185.908 53.6159C186.354 52.9861 186.333 52.8799 185.908 52.3138V52.3208ZM186.913 51.691C186.623 51.5707 186.453 51.2097 186.135 51.4787C186.241 51.7892 186.364 52.0939 186.503 52.3916C186.598 52.5504 186.723 52.6896 186.871 52.8021C186.899 52.427 186.892 52.0448 186.913 51.6627V51.691ZM187.118 52.9507C187.054 52.9061 186.982 52.8726 186.906 52.8516C186.906 53.0993 186.906 53.347 186.906 53.6018C187.033 53.4048 187.106 53.1778 187.118 52.9436V52.9507Z" fill="#407BFF"/>
<path d="M165.936 51.6628C165.983 51.5764 166.023 51.4865 166.056 51.3938C165.455 51.1037 165.066 50.5304 164.351 50.4243C164.181 50.4243 164.039 50.1978 163.884 50.0846C163.728 49.9714 163.431 49.6883 163.24 49.4972C163.154 49.4032 163.089 49.2923 163.049 49.1716C162.978 48.931 162.949 48.7116 162.879 48.4639C162.362 48.5206 161.838 49.0443 161.279 48.4639C161.279 48.2729 161.237 48.0322 161.223 47.7562C161.385 47.5935 161.555 47.4236 161.718 47.2325C162.301 47.2243 162.867 47.0365 163.339 46.6947C163.499 46.598 163.638 46.4705 163.749 46.3196C164.177 45.6764 164.689 45.0932 165.271 44.5857C165.787 44.1141 166.22 43.5591 166.552 42.9438C166.666 42.6813 166.826 42.4415 167.026 42.2361C167.422 41.8115 167.833 41.4152 168.243 41.0472C168.654 40.6792 169.291 40.1555 169.828 39.7379C169.982 39.6054 170.169 39.5186 170.369 39.4873C170.569 39.4561 170.774 39.4816 170.961 39.561C171.223 39.653 171.484 39.7238 171.718 39.7945C171.619 39.8936 171.315 39.6954 171.414 40.1484L171.718 39.7945C171.892 39.8223 172.058 39.8899 172.202 39.9922C172.346 40.0944 172.464 40.2285 172.547 40.384C172.631 40.5394 172.678 40.7121 172.683 40.8885C172.689 41.0649 172.654 41.2403 172.581 41.401C172.441 41.8977 172.2 42.3603 171.874 42.7598C170.951 43.8748 169.909 44.8857 168.767 45.7746C167.644 46.599 166.474 47.3575 165.264 48.0464C165.136 48.1242 164.988 48.2021 164.889 48.2729C165.143 49.6883 166.056 50.2191 168.13 50.0492C168.038 49.9784 167.995 49.9077 167.903 49.8369C168.436 49.6723 168.958 49.4761 169.467 49.2495C169.956 49.0372 170.43 48.7116 170.961 48.4286C171.201 48.5347 171.499 48.6762 171.803 48.8461C171.941 48.8957 172.064 48.9823 172.157 49.0965C172.25 49.2106 172.31 49.3481 172.33 49.4939C172.35 49.6397 172.331 49.7883 172.273 49.9236C172.215 50.0589 172.121 50.1758 172.001 50.2615C171.121 51.0099 170.05 51.4998 168.908 51.6769L167.939 51.8326C167.266 51.8935 166.589 51.836 165.936 51.6628ZM164.329 48.5772C164.11 48.7187 164.216 48.8673 164.329 49.0726C164.322 48.8744 164.329 48.7329 164.329 48.5984V48.5772ZM168.654 43.4604L168.519 43.1491C167.649 43.8374 166.875 44.6396 166.219 45.534C167.153 45.0095 167.979 44.3132 168.654 43.4817V43.4604Z" fill="#407BFF"/>
<path d="M175.462 51.4503C175.172 50.6902 174.805 49.9621 174.365 49.2776C174.217 49.0512 174.174 48.7822 173.849 48.669C173.764 48.669 173.721 48.5487 173.679 48.4496C173.237 47.4724 173.187 46.3632 173.537 45.3498C173.616 45.1966 173.685 45.0382 173.742 44.8757C174.114 43.6787 174.926 42.6671 176.014 42.0449C176.259 41.9003 176.495 41.742 176.722 41.5707C176.963 41.3655 177.175 41.1107 177.55 41.2168C177.635 41.2168 177.783 41.1248 177.883 41.0541C178.286 40.8205 178.689 40.5941 179.093 40.3464C179.249 40.2701 179.373 40.1427 179.447 39.9854C179.616 39.6528 179.588 39.2777 179.836 38.9593C180.015 38.6006 180.111 38.2065 180.119 37.8057C180.253 37.2608 180.331 36.6946 180.487 36.1426C181.248 33.2889 182.194 30.4875 183.318 27.7562C183.849 26.5673 184.28 25.3076 184.868 24.1328C185.434 23.0583 186.06 22.0163 186.743 21.0118C187.314 20.0893 188.207 19.4111 189.248 19.1081C189.77 18.8925 190.336 18.8098 190.897 18.8674C191.069 18.9014 191.236 18.9585 191.393 19.0373C191.876 19.4056 192.337 19.8026 192.773 20.2262C192.997 20.4913 193.152 20.8072 193.226 21.1462C193.493 22.3634 193.44 23.6292 193.07 24.8193C192.598 26.5722 191.944 28.2706 191.117 29.8864C190.904 30.2828 190.628 30.5941 190.409 31.0258C189.379 32.9188 188.155 34.7 186.757 36.3407C186.648 36.442 186.547 36.5508 186.453 36.6663C186.453 36.6663 186.375 36.6663 186.347 36.7087L186.163 36.0718C186.786 35.1447 187.486 34.1751 188.13 33.1844C188.519 32.5224 188.871 31.8397 189.185 31.1391C188.681 31.4741 188.31 31.9749 188.137 32.5545C187.367 33.8563 186.506 35.1026 185.561 36.2841C185.398 36.5035 185.172 36.4327 184.945 36.5743C184.832 36.3973 184.747 36.2204 184.599 35.994L184.981 35.9373L184.917 35.0315C185.349 34.4653 185.866 33.885 186.333 33.2339C187.26 31.9529 188.215 30.6649 189.05 29.3132C190.106 27.4901 190.871 25.5129 191.315 23.4534C191.504 22.604 191.427 21.7171 191.095 20.9127C190.841 20.8884 190.584 20.923 190.344 21.0138C190.105 21.1046 189.89 21.2492 189.715 21.4364C189.189 21.9134 188.715 22.4447 188.3 23.0217C187.592 24.0762 186.984 25.1448 186.333 26.2701C186.092 26.6664 185.887 27.091 185.625 27.6289C185.625 27.3528 185.625 27.1901 185.589 27.0556C184.882 27.9119 182.051 36.3266 181.867 38.1029C182.009 38.1029 182.15 38.1029 182.32 38.1666C182.139 38.1996 181.962 38.247 181.789 38.3082C181.732 38.4851 181.704 38.6549 181.655 38.8248C181.711 38.8309 181.768 38.8309 181.825 38.8248C182.058 38.7328 182.285 38.6125 182.49 38.5275C182.655 38.4402 182.842 38.4033 183.028 38.4214C183.215 38.4394 183.391 38.5117 183.537 38.6293C183.682 38.7468 183.79 38.9044 183.846 39.0826C183.903 39.2607 183.906 39.4516 183.856 39.6316C183.841 39.7587 183.815 39.8843 183.778 40.0067C184.011 40.0774 184.252 40.1765 184.549 40.2968C184.549 40.4101 184.485 40.6082 184.45 40.8913C184.016 40.5221 183.639 40.0904 183.332 39.6103L183.297 40.1128L182.921 39.6457C182.815 39.6457 182.645 39.6457 182.461 39.6953C182.681 40.042 182.872 40.403 183.091 40.6931C183.045 40.7212 183.005 40.7571 182.971 40.7993C182.773 40.6082 182.603 40.4171 182.433 40.219C182.131 40.1484 181.813 40.1993 181.549 40.3608C181.284 40.5224 181.093 40.7815 181.018 41.0824C180.954 41.0116 180.904 40.9054 180.798 40.7568C180.478 41.6808 180.224 42.6269 180.041 43.5877C180.183 43.4532 180.303 43.3541 180.522 43.1772L180.841 43.6018C180.464 45.7783 179.97 47.9329 179.362 50.0561C179.015 51.1375 178.364 52.096 177.486 52.8162C177.043 52.8605 176.597 52.7482 176.228 52.4987C175.858 52.2493 175.587 51.8784 175.462 51.4503ZM178.916 42.0236C178.279 42.5119 177.713 42.9366 177.147 43.3824C177.147 43.3824 177.147 43.4673 177.147 43.4957C177.281 43.4957 177.415 43.4957 177.635 43.439C177.097 44.0547 176.602 44.5784 176.135 45.1163C175.91 45.3744 175.716 45.6569 175.554 45.9585C175.372 46.2704 175.287 46.6294 175.31 46.9899C175.332 47.3504 175.462 47.6959 175.682 47.9825C175.826 48.1893 175.945 48.4127 176.035 48.6478C176.34 49.1502 176.644 49.6527 176.991 50.2613C177.81 47.5599 178.453 44.8082 178.916 42.0236ZM185.915 26.2488L185.795 26.1568L185.689 26.5602L185.781 26.6027L185.915 26.2488ZM187.238 23.6586C187.249 23.5291 187.249 23.3989 187.238 23.2694C187.144 23.415 187.059 23.5663 186.984 23.7223L187.076 23.7931C187.139 23.7603 187.194 23.7145 187.238 23.6586ZM188.802 21.3303C189.057 21.0476 189.327 20.7783 189.609 20.5235C189.435 20.5223 189.263 20.5683 189.112 20.6568C188.961 20.7452 188.837 20.8728 188.753 21.0259C188.505 21.3656 188.13 21.6487 188.045 22.13C188.328 21.8935 188.582 21.6251 188.802 21.3303ZM191.57 24.7697C191.098 25.4207 190.827 26.1958 190.791 26.999C191.16 26.2986 191.422 25.5473 191.57 24.7697Z" fill="#407BFF"/>
<path d="M189.709 50.1554L189.468 50.3889C188.959 50.3323 188.93 49.9501 188.867 49.568C188.718 48.4102 188.245 47.3181 187.501 46.4187C186.958 45.7995 186.384 45.209 185.781 44.6494C185.516 44.3984 185.237 44.1622 184.946 43.9417C184.574 43.6449 184.312 43.2317 184.203 42.7684C184.094 42.305 184.144 41.8185 184.344 41.3869C184.371 41.3498 184.392 41.3094 184.408 41.2666C184.408 40.2121 185.116 39.6247 185.859 39.1434C186.935 38.4357 188.116 37.8696 189.235 37.2468C189.284 37.2114 189.369 37.2468 189.503 37.2043C189.029 37.912 188.307 38.1951 187.819 38.7754C188.435 38.4499 189.072 38.1314 189.68 37.7846C189.779 37.7422 189.822 37.6502 189.928 37.6077C190.968 37.2185 191.294 36.3055 191.52 35.3289L191.768 34.9609C191.733 34.9609 191.712 34.9609 191.704 34.9113C191.697 34.8618 191.556 35.0246 191.478 35.06C191.577 34.6566 191.648 34.2319 191.782 33.8498C192.709 31.1888 193.636 28.5207 194.613 25.8527C194.712 25.5908 194.84 25.3785 194.981 25.053C195.186 25.2653 195.342 25.4068 195.512 25.5979C195.632 25.4291 195.743 25.2543 195.845 25.0742C196.297 25.145 196.694 25.3573 196.743 25.8456C196.761 26.2114 196.706 26.5771 196.581 26.9213C196.213 27.8909 195.731 28.8534 195.392 29.8229C194.797 31.4648 194.295 33.1492 193.736 34.8123C193.658 35.0458 193.622 35.3006 193.53 35.5907C193.997 35.5907 194.408 35.5907 194.825 35.5907C195.411 35.6035 195.986 35.7415 196.514 35.9954C197.041 36.2493 197.508 36.6133 197.883 37.0628C197.952 37.1535 197.996 37.2609 198.01 37.3742C198.01 37.5086 198.01 37.6502 198.01 37.7846C198.042 37.9153 198.099 38.0381 198.18 38.1456C197.932 38.4923 197.649 38.6197 197.274 38.372C197.207 38.3299 197.13 38.3075 197.051 38.3075C196.972 38.3075 196.895 38.3299 196.828 38.372C196.694 38.4216 196.453 38.2659 196.319 38.1243C196.176 37.9486 195.982 37.822 195.764 37.7624C195.545 37.7027 195.314 37.713 195.101 37.7917C194.33 37.9686 193.537 38.181 192.688 38.4003C192.384 39.7804 192.094 41.0967 191.839 42.406C191.35 44.6879 191.066 47.009 190.99 49.3415C190.991 49.58 190.963 49.8178 190.905 50.0492C190.77 50.5941 190.438 50.7569 189.942 50.4243C189.845 50.3539 189.765 50.2619 189.709 50.1554ZM185.052 42.1937C184.762 42.6041 185.052 42.8023 185.3 43.0429C185.354 42.8934 185.359 42.7305 185.314 42.5779C185.27 42.4252 185.178 42.2907 185.052 42.1937ZM190.218 39.5681C188.456 40.1555 186.68 41.4435 186.298 42.3564C187.281 43.3331 188.293 44.3026 189.312 45.3005L190.218 39.5681Z" fill="#407BFF"/>
<path d="M146.914 121.924C146.896 121.755 146.896 121.584 146.914 121.414C146.794 121.393 146.676 121.365 146.56 121.329C146.488 121.025 146.445 120.715 146.433 120.402C146.525 119.574 146.687 118.782 146.836 117.961C147.119 116.361 147.48 114.741 147.706 113.127C147.933 111.393 148.11 109.681 148.244 107.94C148.294 107.536 148.57 107.232 148.598 106.885L148.718 102.214C148.695 102.124 148.657 102.038 148.605 101.959L148.386 102.094C148.235 100.127 147.918 98.176 147.437 96.2624C146.921 94.3375 145.838 92.7239 144.96 90.9758C146.159 91.6859 147.065 92.8 147.515 94.1181C147.929 95.3167 148.253 96.5444 148.485 97.7911C148.547 98.1704 148.585 98.5533 148.598 98.9376C148.633 99.072 148.598 99.1994 148.633 99.3268C148.908 100.462 149.093 101.616 149.185 102.78C149.292 103.623 149.341 104.479 149.476 105.314C149.559 103.813 149.519 102.307 149.355 100.813C149.157 99.5391 149.058 98.2228 148.796 96.963C148.605 96.1138 148.195 95.2787 147.954 94.4436C147.726 93.6391 147.393 92.8682 146.963 92.1506C146.577 91.5277 146.119 90.9527 145.597 90.438C145.718 90.7211 145.81 91.0112 145.902 91.2943C144.934 89.5864 143.463 88.2176 141.691 87.3736C140.827 86.881 139.854 86.6133 138.86 86.5951C139.695 86.9631 140.544 87.2462 141.344 87.685C142.138 88.1371 142.873 88.6863 143.531 89.3198C143.021 89.0438 142.498 88.7112 141.939 88.4706C141.368 88.2003 140.782 87.9639 140.183 87.7629C139.603 87.5576 138.98 87.3878 138.35 87.1967C138.278 87.3929 138.219 87.5939 138.174 87.7982C137.741 90.2448 137.448 92.7139 137.296 95.1938C137.246 96.0125 137.149 96.8277 137.006 97.6354C136.921 98.1308 136.822 98.1803 136.192 98.2369L135.675 97.6849C135.541 97.8265 135.428 97.9609 135.314 98.0742C135.3 98.0763 135.286 98.0732 135.274 98.0653C135.263 98.0575 135.254 98.0455 135.251 98.0317C135.258 98.0135 135.258 97.9933 135.251 97.9751C134.968 95.9652 135.392 93.9978 135.534 92.0091C135.626 90.5937 135.888 89.1004 136.065 87.6638C136.065 87.4373 136.128 87.2038 136.15 86.9207C135.64 86.9207 135.187 86.857 134.734 86.8711C133.043 86.9419 131.351 87.0198 129.674 87.1401C128.881 87.2108 128.075 87.4727 127.296 87.6213C125.633 87.9398 123.991 88.2229 122.342 88.513C121.767 88.6253 121.186 88.6986 120.601 88.7324C120.189 88.7061 119.778 88.6589 119.37 88.5909C119.674 88.1025 119.065 87.9893 119.186 87.5435C119.226 87.1544 119.214 86.7617 119.15 86.3757C119.61 86.0815 120.096 85.8304 120.601 85.6256C122.307 84.9957 124.019 84.4154 125.753 83.7997C127.99 83.0424 130.233 82.3135 132.469 81.5633C134.055 81.0396 135.668 80.4805 137.331 79.9073C137.381 79.6455 137.459 79.3765 137.515 79.1147C137.947 77.0552 138.35 75.01 138.811 72.9505C139.009 72.0942 139.278 71.2733 139.518 70.4382C139.635 70.148 139.767 69.8645 139.915 69.5889C140.389 69.7092 140.813 69.8366 141.231 69.964C141.394 70.1834 141.514 70.3532 141.684 70.6222C141.691 70.8261 141.662 71.0298 141.599 71.2237C140.907 73.0221 140.408 74.8892 140.113 76.7934C139.943 77.5577 139.787 78.3433 139.639 79.1925C139.814 79.1928 139.989 79.181 140.162 79.1571C140.826 78.9749 141.478 78.7527 142.115 78.4919C143.58 77.9116 144.946 77.2888 146.404 76.6872C146.659 76.574 146.956 76.3971 147.246 76.6872C147.296 76.7651 147.501 76.6872 147.607 76.6872C148.927 76.3391 150.22 75.8992 151.478 75.3709C152.413 74.9321 153.403 74.5995 154.352 74.2173C154.529 74.1466 154.706 74.0546 154.904 73.9555C155.031 73.2478 155.166 72.6108 155.258 71.9173C155.382 71.2192 155.564 70.5327 155.803 69.8649C156.092 69.3256 156.18 68.7009 156.05 68.1027C156.015 67.814 156.047 67.5211 156.142 67.2464C156.659 64.0759 157.197 60.877 157.713 57.6853C157.855 56.8431 157.975 56.008 158.067 55.1729C158.202 54.4427 158.252 53.6994 158.216 52.9578C158.258 51.8118 158.454 50.6765 158.796 49.582L160.212 49.9642C160.41 51.4575 160.148 52.9153 160.558 54.3874C160.447 54.4591 160.331 54.5229 160.212 54.5784L159.794 57.4093C159.525 56.1543 159.525 54.8568 159.794 53.6018C159.129 53.9769 159.228 54.536 159.157 54.9748C158.851 55.8104 158.707 56.6967 158.732 57.5862C158.753 58.3005 158.679 59.0143 158.513 59.7093C158.513 60.1693 158.513 60.6152 158.513 61.061C158.55 61.175 158.595 61.2861 158.648 61.3937C158.725 61.1247 158.761 60.8983 158.846 60.5373C158.846 64.7128 157.926 68.6335 157.275 72.6958C158.315 72.349 159.2 72.0659 160.105 71.7616L165.725 69.9074C167.558 69.3271 169.362 68.7821 171.167 68.2089C171.484 68.0934 171.815 68.0196 172.151 67.9895C173.032 67.8539 173.904 67.6648 174.762 67.4233C175.272 67.3101 175.533 66.8643 176.064 66.7156C176.899 66.5529 177.706 66.1778 178.555 65.9584C181.634 65.1021 184.734 64.2033 187.876 63.6371C188.457 63.5484 189.043 63.5011 189.631 63.4956C189.806 63.4505 189.991 63.4529 190.165 63.5027C190.339 63.5524 190.497 63.6477 190.622 63.7786C190.683 63.8289 190.755 63.8656 190.832 63.8863C190.909 63.9071 190.989 63.9114 191.068 63.899C191.69 63.814 192.023 64.3023 192.412 64.6633C192.504 64.7479 192.56 64.8644 192.568 64.9888C192.631 65.4642 192.588 65.9478 192.441 66.4042C192.268 66.2463 192.107 66.076 191.959 65.8947L190.664 66.3547C190.325 65.2294 189.44 65.647 188.746 65.647C188.107 65.7397 187.473 65.8721 186.85 66.0433L184.727 66.5246L180.417 67.664C179.548 67.8686 178.692 68.1262 177.855 68.4354C176.906 68.8175 175.901 69.0723 175.024 69.5252C173.692 70.1298 172.318 70.6359 170.912 71.0397C166.991 72.3702 163.078 73.637 159.15 74.9463C158.577 75.1303 158.011 75.2294 157.43 75.3851L156.892 75.5903C156.723 76.2131 156.581 76.8359 156.44 77.4303C155.958 77.4303 156.1 77.7842 156.008 78.0248C156.135 78.0814 156.206 78.1522 156.298 78.1876C156.149 79.2562 156.022 80.3107 155.845 81.3935C154.651 88.6263 153.444 95.8614 152.222 103.099C152.036 104.187 151.784 105.262 151.464 106.319C151.464 105.562 151.535 104.762 151.585 103.998C151.535 103.998 151.5 103.998 151.45 103.998C151.273 104.96 151.04 105.908 150.919 106.828C150.877 107.547 150.877 108.268 150.919 108.987C150.886 110.83 150.701 112.666 150.367 114.479C150.139 115.863 149.788 117.225 149.32 118.548C149.078 119.084 148.953 119.666 148.952 120.254C148.934 120.772 148.713 121.263 148.336 121.62L146.914 121.924ZM134.883 85.753C134.685 85.753 134.564 85.7105 134.451 85.7034C134.769 85.6327 135.109 85.6397 135.428 85.569C135.746 85.4982 136.093 85.7883 136.426 85.3991C134.589 85.3159 132.749 85.3941 130.927 85.6327C130.056 85.7176 129.207 85.7954 128.344 85.9299C127.692 86.0219 127.055 86.1917 126.419 86.3333L126.468 86.5527C126.706 86.5212 126.943 86.4763 127.176 86.4182C128.351 86.2979 129.497 86.1493 130.665 86.0007C131.694 85.8341 132.742 85.8055 133.779 85.9157L134.607 85.9794C134.685 85.9653 134.748 85.8662 134.89 85.753H134.883ZM129.992 84.0262C130.948 83.6935 131.903 83.3185 132.887 83.092C133.871 82.8655 134.968 82.6532 136.029 82.3843C136.357 82.2938 136.677 82.1754 136.985 82.0304L137.055 81.4572C136.942 81.4572 136.878 81.4147 136.794 81.4572C136.128 81.719 135.484 81.9738 134.812 82.2144C133.772 82.5612 132.689 82.9221 131.627 83.2335C130.566 83.5449 129.554 83.8422 128.52 84.104C128.077 84.2236 127.668 84.4495 127.331 84.7622C127.643 84.7743 127.954 84.7336 128.252 84.6419C128.804 84.4296 129.398 84.2172 130 84.0262H129.992ZM136.702 82.7948C136.174 82.8546 135.661 83.008 135.187 83.2477C134.669 83.5218 134.132 83.7583 133.581 83.9554C132.413 84.3588 131.238 84.7339 129.936 85.1726C131.174 85.0877 132.25 85.0099 133.312 84.9957C134.373 84.9816 135.435 84.9957 136.468 84.9957C136.74 84.2984 136.823 83.5415 136.709 82.8018L136.702 82.7948ZM137.367 87.1188C137.133 87.4232 137.133 87.4232 137.275 87.8266C137.296 87.5222 137.338 87.3241 137.374 87.1188H137.367ZM137.997 83.0637L137.82 83.0212C137.706 83.6298 137.558 84.2243 137.445 84.84C137.513 84.9422 137.591 85.0371 137.678 85.1231C137.791 84.3659 137.898 83.7006 138.004 83.0637H137.997ZM151.068 99.2843C151.068 98.4422 151.068 97.5788 151.139 96.7224C151.244 95.8143 151.395 94.912 151.592 94.019C151.726 93.2617 151.924 92.5186 152.009 91.7685C152.094 91.0183 152.512 90.2611 152.384 89.4472C152.384 89.3693 152.455 89.2632 152.462 89.1783C152.54 88.9091 152.599 88.6348 152.639 88.3573C152.766 87.685 152.915 86.9773 153.014 86.2837C153.17 85.2434 153.297 84.1606 153.425 83.1486C153.481 82.6603 153.481 82.1507 153.545 81.6907C153.821 80.063 154.097 78.4353 154.415 76.7368C154.211 76.7191 154.006 76.7359 153.807 76.7863C153.141 76.9855 152.486 77.2218 151.846 77.494C150.602 78.085 149.297 78.5383 147.954 78.8457C147.284 78.9872 146.626 79.1812 145.987 79.4261C145.449 79.6313 144.925 79.9144 144.387 80.1338C143.467 80.5088 142.512 80.8415 141.556 81.2166C140.757 81.5067 139.922 81.7756 139.094 82.0729L138.52 85.3637C138.777 85.4607 139.046 85.5226 139.32 85.5477C140.26 85.6412 141.175 85.9101 142.016 86.3404C142.475 86.6048 142.915 86.9003 143.333 87.225C143.882 87.683 144.467 88.0971 145.081 88.4635C145.458 88.6301 145.797 88.8708 146.079 89.1712C146.63 89.8093 147.145 90.478 147.621 91.174C148.544 92.5671 149.212 94.1125 149.596 95.7387C149.936 97.1187 150.254 98.5271 150.481 99.9283C150.559 100.714 150.578 101.504 150.537 102.292C150.493 102.18 150.441 102.071 150.382 101.967C150.399 102.314 150.458 102.659 150.558 102.993C150.593 103.336 150.593 103.682 150.558 104.026C150.916 102.471 151.089 100.88 151.075 99.2843H151.068ZM154.776 84.2951C154.826 83.8917 154.819 83.5024 154.84 83.1061C155.017 82.7594 155.194 82.4409 154.939 82.0517C154.904 82.3914 154.875 82.7594 154.812 83.0849C154.446 84.0561 154.252 85.0834 154.239 86.121V86.9065C154.471 86.0474 154.653 85.1755 154.783 84.2951H154.776Z" fill="#407BFF"/>
<path d="M164.515 85.6327C164.364 86.0251 164.239 86.427 164.14 86.8358C164.653 86.4071 165.127 85.9334 165.556 85.4203L169.851 80.3956L170.927 79.0651C171.062 78.9236 171.238 78.8316 171.394 78.683L172.003 79.4968C172.328 79.3411 172.512 78.9094 172.972 79.0793C173.602 79.6384 173.51 80.3602 173.418 81.0821C173.346 81.5394 173.242 81.9911 173.107 82.4338L171.882 87.4373C171.84 87.6142 171.769 87.7982 171.706 88.0106C171.401 87.7699 171.529 87.4656 171.55 87.2038C171.571 86.9419 171.677 86.4961 171.762 86.1493C172.01 85.6017 172.172 85.0193 172.243 84.4225C171.863 84.9129 171.69 85.5329 171.762 86.1493C171.51 86.4087 171.359 86.7504 171.338 87.1118C171.238 87.5576 171.146 87.9964 171.012 88.5272L170.474 88.145C170.382 88.2397 170.282 88.3273 170.177 88.4069C170.042 88.329 169.915 88.2441 169.752 88.1662C169.752 87.6567 169.986 87.1967 169.752 86.6942C169.696 86.5668 169.795 86.3757 169.837 86.1988L170.545 83.4671C170.545 83.3185 170.587 83.1486 170.651 82.8301L168.726 84.9532C168.645 84.9663 168.566 84.9926 168.493 85.0311C168.209 85.0311 168.16 85.0311 168.025 85.4416C168.149 85.3794 168.28 85.3319 168.415 85.3C168.648 85.3 168.754 85.1939 168.825 85.017C169.045 84.8542 169.264 84.7197 169.604 84.5003C168.706 85.706 167.704 86.8308 166.61 87.8619C166.065 88.4069 165.471 88.874 164.883 89.3693C164.54 89.6354 164.14 89.8207 163.715 89.9114C163.29 90.002 162.85 89.9958 162.428 89.8931C162.228 89.8652 162.045 89.7687 161.909 89.6201C161.774 89.4715 161.694 89.2802 161.684 89.0792C161.512 88.1714 161.592 87.2335 161.918 86.3687C162.294 85.4027 162.721 84.4577 163.199 83.5378C164.234 81.5897 165.511 79.7802 166.999 78.1522C167.548 77.5874 168.19 77.1207 168.896 76.7722C169.187 76.5845 169.458 76.3663 169.703 76.1211C169.971 75.8694 170.268 75.6508 170.587 75.47C171.111 75.1869 171.571 75.47 172.003 75.7955C171.89 75.7955 171.776 75.7955 171.599 75.746C171.599 75.8875 171.599 76.0291 171.599 76.2201C171.84 76.2201 172.095 76.2201 172.307 76.1777C172.616 76.3378 172.862 76.5976 173.004 76.9149C173.147 77.2323 173.178 77.5885 173.093 77.9257C172.569 78.322 172.505 78.3079 172.045 77.8833C171.953 77.9611 171.833 78.046 171.72 78.1522C171.621 78.0885 171.5 78.0602 171.401 77.9965C171.302 77.9328 171.288 77.8549 171.168 77.7134C170.861 77.9307 170.568 78.167 170.29 78.4211C169.42 79.2845 168.528 80.1833 167.693 81.0679C167.212 81.5421 166.801 82.08 166.355 82.5754C165.615 83.5127 164.997 84.54 164.515 85.6327ZM164.069 88.2512C163.921 88.332 163.767 88.4029 163.609 88.4635C164.076 88.5555 164.19 88.4635 164.069 88.2795V88.2512ZM164.48 87.7133C164.65 87.7133 164.77 87.7558 164.883 87.7558C164.921 87.5952 164.969 87.4369 165.025 87.2816L164.48 87.7133ZM167.728 85.6327C167.748 85.6398 167.766 85.652 167.78 85.6682C167.793 85.6844 167.802 85.7038 167.806 85.7247L167.926 85.5053L167.728 85.6327Z" fill="#407BFF"/>
<path d="M185.038 78.4424C184.967 80.3603 184.917 82.2498 184.868 84.1606L184.832 85.4841C184.812 85.7278 184.859 85.9724 184.967 86.1918C185.091 86.42 185.146 86.6796 185.125 86.9387C185.104 87.1978 185.007 87.445 184.847 87.6497C184.71 87.7917 184.527 87.8798 184.331 87.898C184.134 87.9162 183.938 87.8632 183.778 87.7487C183.668 87.6816 183.545 87.6405 183.417 87.6284C182.858 87.5081 182.674 87.2958 182.66 86.7367L182.709 83.736C182.709 82.8939 182.759 82.0729 182.815 81.2237C182.758 80.7393 182.839 80.2487 183.049 79.8083C183.083 79.7566 183.106 79.6986 183.117 79.6378C183.128 79.577 183.126 79.5146 183.113 79.4544C183.141 79.1177 183.141 78.7791 183.113 78.4424C183.058 78.1564 182.975 77.8766 182.865 77.6073C182.45 77.6364 182.056 77.8033 181.747 78.0814C179.784 79.5733 178.169 81.4737 177.012 83.6511C176.915 83.8732 176.767 84.0695 176.581 84.2243C176.22 84.472 175.965 84.3305 175.873 83.8988C175.844 83.3424 175.844 82.785 175.873 82.2286C175.935 81.0582 176.144 79.9002 176.496 78.7821L176.913 77.2676C176.857 77.2676 176.757 77.3242 176.623 77.3596C176.843 76.3255 177.213 75.3291 177.72 74.4014C177.894 74.4836 178.058 74.5857 178.208 74.7057C178.017 74.9746 177.847 75.2081 177.685 75.47C178.018 75.9055 178.17 76.4534 178.109 76.9987C178.378 76.2909 178.697 75.746 178.958 75.0454C179.014 75.1507 179.057 75.2624 179.086 75.378C179.086 75.4842 179.008 75.6469 179.043 75.6682C179.503 76.1211 179.178 76.5316 178.966 76.942C178.83 77.2607 178.754 77.6011 178.739 77.947L180.02 76.8996C179.978 77.218 179.949 77.3384 179.921 77.6073C180.289 77.3879 180.629 77.1685 180.997 76.8996C180.881 76.8368 180.757 76.7892 180.629 76.758C180.751 76.4459 180.949 76.1689 181.205 75.9519C181.461 75.735 181.767 75.5847 182.095 75.5146C182.423 75.4446 182.763 75.4568 183.085 75.5503C183.407 75.6437 183.701 75.8155 183.941 76.0503C184.289 76.3435 184.567 76.71 184.757 77.1235C184.947 77.5371 185.042 77.9874 185.038 78.4424ZM177.097 76.7085C177.054 76.8164 177.002 76.9205 176.941 77.0199C176.941 77.0765 176.941 77.126 176.984 77.2039C177.154 77.0836 177.317 76.935 177.097 76.7085Z" fill="#407BFF"/>
<path d="M201.647 56.4185C201.478 58.078 201.124 59.7135 200.593 61.2946C199.906 63.6234 199.086 65.9107 198.137 68.1452C198.075 68.2784 198.03 68.4186 198.003 68.5628C197.477 71.3721 197.097 74.2067 196.863 77.0552C196.87 77.1187 196.87 77.1828 196.863 77.2463C197.231 77.5011 197.571 77.7842 197.967 78.0602C197.926 79.1661 197.645 80.25 197.146 81.2378C197.103 81.3667 197.033 81.4852 196.941 81.5855C196.849 81.6859 196.737 81.766 196.613 81.8206C196.488 81.8752 196.354 81.9032 196.218 81.9028C196.082 81.9024 195.947 81.8735 195.823 81.8181C195.766 81.8181 195.667 81.7403 195.618 81.7827C195.52 81.8359 195.408 81.8556 195.298 81.839C195.188 81.8224 195.086 81.7703 195.009 81.6907C194.849 81.5049 194.748 81.2758 194.719 81.0326C194.627 80.3739 194.592 79.7086 194.613 79.0439C194.662 78.1663 194.797 77.2676 194.882 76.4042C194.942 76.0933 194.942 75.7738 194.882 75.4629C194.761 75.654 194.634 75.8521 194.535 76.0432C193.44 78.1534 192.149 80.1556 190.678 82.0233C190.15 82.7134 189.511 83.3113 188.788 83.7926C188.445 83.9887 188.064 84.1085 187.671 84.1439C187.278 84.1793 186.882 84.1295 186.509 83.9979C186.035 83.8846 185.802 83.5095 185.752 82.9929C185.6 81.5902 185.819 80.172 186.389 78.8811C187.51 75.9355 189.462 73.3786 192.008 71.521C192.826 70.9019 193.775 70.4782 194.782 70.2825C195.356 69.1323 195.807 67.9249 196.127 66.6802C196.396 65.1587 196.757 63.6513 197.125 62.1722C197.314 61.4057 197.55 60.6517 197.833 59.9146C197.932 59.6103 198.229 59.4333 198.307 59.0512C198.6 58.1468 198.836 57.2249 199.015 56.2911C199.064 55.7122 199.314 55.1688 199.722 54.7554L200.005 55.1375C200.201 55.0513 200.416 55.0197 200.628 55.046C200.84 55.0723 201.041 55.1556 201.209 55.287C201.378 55.4185 201.507 55.5931 201.585 55.7923C201.662 55.9915 201.683 56.2079 201.647 56.4185ZM187.153 81.0184L187.019 80.7707C187.019 80.7707 186.941 80.8132 186.92 80.8415L187.054 81.0679C187.111 81.0538 187.132 81.0184 187.153 81.0184ZM187.344 79.7445C187.153 79.9002 187.153 80.1196 187.118 80.3532L187.267 80.4027L187.344 79.7445ZM187.444 79.2987C187.416 79.4026 187.402 79.5096 187.401 79.6171L187.557 79.327C187.557 79.327 187.472 79.3199 187.444 79.2987ZM192.9 73.9626C191.109 75.0949 188.498 78.6476 187.946 81.3156C189.967 79.135 191.638 76.6546 192.9 73.9626ZM188.081 78.2866C188.081 78.1734 188.151 78.1097 188.18 77.9894C188.052 78.046 187.889 78.0531 188.081 78.2866ZM188.222 77.9257C188.314 77.8196 188.569 77.7346 188.222 77.4374V77.9257ZM193.374 74.1041C192.554 75.3668 191.844 76.6974 191.251 78.0814L191.414 78.1805C191.803 77.5365 192.122 76.8712 192.539 76.2272C193.402 74.7127 193.445 74.649 193.374 74.1041Z" fill="#407BFF"/>
<path d="M103.799 70.063V89.7444C98.2012 92.3558 84.9316 89.7444 84.9316 89.7444V70.063C93.2189 66.6731 103.799 70.063 103.799 70.063Z" fill="#263238"/>
<path opacity="0.6" d="M103.799 70.063V89.7443C98.2012 92.3558 84.9316 89.7443 84.9316 89.7443V70.063C84.9316 70.063 97.7836 73.1132 103.799 70.063Z" fill="white"/>
<path d="M94.3662 71.3582V74.8967C94.3662 75.1088 94.4504 75.3122 94.6004 75.4622C94.7504 75.6122 94.9538 75.6965 95.1659 75.6965C95.378 75.6965 95.5814 75.6122 95.7313 75.4622C95.8813 75.3122 95.9656 75.1088 95.9656 74.8967V73.3893C95.9656 73.2223 96.0319 73.0621 96.1501 72.944C96.2682 72.8258 96.4284 72.7595 96.5954 72.7595C96.7625 72.7595 96.9227 72.8258 97.0408 72.944C97.1589 73.0621 97.2253 73.2223 97.2253 73.3893V83.5095C97.2253 83.6384 97.2508 83.766 97.3003 83.8849C97.3498 84.0039 97.4224 84.1119 97.5138 84.2026C97.6053 84.2934 97.7138 84.3652 97.8331 84.4139C97.9524 84.4625 98.0802 84.4871 98.209 84.4862C98.468 84.4862 98.7164 84.3833 98.8996 84.2001C99.0827 84.017 99.1856 83.7686 99.1856 83.5095V71.1742L101.705 70.0348L90.7852 69.7517L94.3662 71.3582Z" fill="#263238"/>
<path d="M84.9238 69.7021C85.1366 69.7166 85.3351 69.8149 85.4757 69.9754C85.6162 70.1358 85.6875 70.3455 85.6739 70.5584C85.5112 73.9979 86.3817 76.5881 88.2359 78.2724C89.8494 79.7374 92.2415 80.5017 95.3129 80.5583C96.5333 80.6313 97.7349 80.2308 98.6675 79.4401C101.017 77.3736 101.152 73.0708 101.095 71.3298C101.087 71.1193 101.162 70.9141 101.303 70.7581C101.445 70.602 101.642 70.5075 101.852 70.4947C101.96 70.485 102.069 70.4976 102.172 70.5317C102.275 70.5658 102.37 70.6207 102.451 70.6931C102.532 70.7654 102.597 70.8536 102.643 70.9521C102.688 71.0507 102.713 71.1576 102.716 71.2661C102.786 73.184 102.638 77.8973 99.8493 80.346C98.576 81.4211 96.9419 81.9725 95.2775 81.8888C91.739 81.8251 88.9082 80.9122 87.0044 79.1712C84.8318 77.2108 83.8339 74.2739 84.025 70.4522C84.0299 70.3422 84.0577 70.2344 84.1066 70.1357C84.1554 70.037 84.2244 69.9495 84.3089 69.8789C84.3935 69.8083 84.4919 69.7562 84.5977 69.7257C84.7036 69.6953 84.8146 69.6872 84.9238 69.7021Z" fill="#263238"/>
<g opacity="0.4">
<path d="M84.9238 69.7021C85.1366 69.7166 85.3351 69.8149 85.4757 69.9754C85.6162 70.1358 85.6875 70.3455 85.6739 70.5584C85.5112 73.9979 86.3817 76.5881 88.2359 78.2724C89.8494 79.7374 92.2415 80.5017 95.3129 80.5583C96.5333 80.6313 97.7349 80.2308 98.6675 79.4401C101.017 77.3736 101.152 73.0708 101.095 71.3298C101.087 71.1193 101.162 70.9141 101.303 70.7581C101.445 70.602 101.642 70.5075 101.852 70.4947C101.96 70.485 102.069 70.4976 102.172 70.5317C102.275 70.5658 102.37 70.6207 102.451 70.6931C102.532 70.7654 102.597 70.8536 102.643 70.9521C102.688 71.0507 102.713 71.1576 102.716 71.2661C102.786 73.184 102.638 77.8973 99.8493 80.346C98.576 81.4211 96.9419 81.9725 95.2775 81.8888C91.739 81.8251 88.9082 80.9122 87.0044 79.1712C84.8318 77.2108 83.8339 74.2739 84.025 70.4522C84.0299 70.3422 84.0577 70.2344 84.1066 70.1357C84.1554 70.037 84.2244 69.9495 84.3089 69.8789C84.3935 69.8083 84.4919 69.7562 84.5977 69.7257C84.7036 69.6953 84.8146 69.6872 84.9238 69.7021Z" fill="white"/>
</g>
<path d="M138.881 256.261L122.151 91.7966L115.116 92.5043L117.02 111.259H84.5006L82.519 91.7896L75.4844 92.4973L92.1367 256.261H99.2492L95.9654 223.961H128.52L131.804 256.261H138.881ZM120.601 146.495H88.0816L85.2507 118.364H117.805L120.601 146.495ZM124.182 181.697H91.6626L88.8317 153.572H121.386L124.182 181.697ZM127.763 216.905H95.2436L92.4127 188.774H124.967L127.763 216.905Z" fill="#263238"/>
<g opacity="0.4">
<path d="M138.881 256.261L122.151 91.7966L115.116 92.5043L117.02 111.259H84.5006L82.519 91.7896L75.4844 92.4973L92.1367 256.261H99.2492L95.9654 223.961H128.52L131.804 256.261H138.881ZM120.601 146.495H88.0816L85.2507 118.364H117.805L120.601 146.495ZM124.182 181.697H91.6626L88.8317 153.572H121.386L124.182 181.697ZM127.763 216.905H95.2436L92.4127 188.774H124.967L127.763 216.905Z" fill="white"/>
</g>
<path d="M62.7804 256.261L66.0642 223.961H98.6187L95.335 256.261H102.447L119.1 92.5114L112.023 91.8037L110.041 111.273H77.5291L79.4328 92.5185L72.3911 91.8108L55.668 256.261H62.7804ZM76.8072 118.343H109.326L106.496 146.474H73.948L76.8072 118.343ZM73.2262 153.572H105.745L102.915 181.697H70.3671L73.2262 153.572ZM69.6452 188.774H102.2L99.3689 216.905H66.7861L69.6452 188.774Z" fill="#407BFF"/>
<g opacity="0.4">
<path d="M62.7804 256.261L66.0642 223.961H98.6187L95.335 256.261H102.447L119.1 92.5114L112.023 91.8037L110.041 111.273H77.5291L79.4328 92.5185L72.3911 91.8108L55.668 256.261H62.7804ZM76.8072 118.343H109.326L106.496 146.474H73.948L76.8072 118.343ZM73.2262 153.572H105.745L102.915 181.697H70.3671L73.2262 153.572ZM69.6452 188.774H102.2L99.3689 216.905H66.7861L69.6452 188.774Z" fill="white"/>
</g>
<path d="M129.842 92.5258C129.842 93.018 129.745 93.5054 129.557 93.9601C129.368 94.4147 129.092 94.8278 128.743 95.1755C128.395 95.5232 127.981 95.7989 127.526 95.9866C127.071 96.1743 126.584 96.2705 126.091 96.2695H70.0055C69.5139 96.2695 69.027 96.1727 68.5728 95.9845C68.1186 95.7964 67.7059 95.5206 67.3582 95.173C67.0106 94.8254 66.7348 94.4126 66.5467 93.9584C66.3586 93.5042 66.2617 93.0174 66.2617 92.5258C66.2673 91.5339 66.6633 90.5841 67.364 89.8821C68.0647 89.1801 69.0137 88.7823 70.0055 88.7749H126.091C127.086 88.7749 128.04 89.1701 128.744 89.8735C129.447 90.5769 129.842 91.531 129.842 92.5258Z" fill="#407BFF"/>
<path opacity="0.2" d="M114.506 92.5258C114.506 93.018 114.409 93.5054 114.22 93.9601C114.032 94.4147 113.756 94.8278 113.407 95.1755C113.059 95.5232 112.645 95.7989 112.19 95.9866C111.735 96.1743 111.248 96.2705 110.755 96.2695H70.0055C69.5139 96.2695 69.027 96.1727 68.5728 95.9845C68.1186 95.7964 67.7059 95.5206 67.3582 95.173C67.0106 94.8254 66.7348 94.4126 66.5467 93.9584C66.3586 93.5042 66.2617 93.0174 66.2617 92.5258C66.2673 91.5339 66.6633 90.5841 67.364 89.8821C68.0647 89.1801 69.0137 88.7823 70.0055 88.7749H110.755C111.75 88.7768 112.702 89.1726 113.405 89.8756C114.108 90.5786 114.504 91.5315 114.506 92.5258Z" fill="white"/>
<path d="M142.249 237.429L140.834 237.323C141.138 233.239 140.402 230.189 138.64 228.257C137.225 226.707 135.101 225.893 132.426 225.836C131.88 225.804 131.334 225.894 130.827 226.099C130.32 226.305 129.865 226.622 129.496 227.025C126.878 229.807 127.373 236.41 127.409 236.473L125.993 236.594C125.993 236.296 125.413 229.304 128.463 226.056C128.969 225.509 129.589 225.08 130.278 224.797C130.968 224.515 131.71 224.387 132.455 224.421C135.569 224.485 138.003 225.454 139.687 227.308C141.74 229.538 142.596 232.942 142.249 237.429Z" fill="#263238"/>
<g opacity="0.6">
<path d="M142.249 237.429L140.834 237.323C141.138 233.239 140.402 230.189 138.64 228.257C137.225 226.707 135.101 225.893 132.426 225.836C131.88 225.804 131.334 225.894 130.827 226.099C130.32 226.305 129.865 226.622 129.496 227.025C126.878 229.807 127.373 236.41 127.409 236.473L125.993 236.594C125.993 236.296 125.413 229.304 128.463 226.056C128.969 225.509 129.589 225.08 130.278 224.797C130.968 224.515 131.71 224.387 132.455 224.421C135.569 224.485 138.003 225.454 139.687 227.308C141.74 229.538 142.596 232.942 142.249 237.429Z" fill="white"/>
</g>
<path d="M143.373 235.419V255.1C137.775 257.712 124.506 255.1 124.506 255.1V235.419C132.793 232.057 143.373 235.419 143.373 235.419Z" fill="#407BFF"/>
<path opacity="0.6" d="M143.373 235.419V255.1C137.775 257.712 124.506 255.1 124.506 255.1V235.419C124.506 235.419 137.358 238.497 143.373 235.419Z" fill="white"/>
<path d="M133.94 236.742V240.281C133.942 240.492 134.027 240.695 134.177 240.844C134.326 240.994 134.529 241.079 134.74 241.08C134.952 241.08 135.156 240.996 135.306 240.846C135.456 240.696 135.54 240.493 135.54 240.281V238.766C135.54 238.599 135.606 238.439 135.724 238.321C135.842 238.203 136.003 238.136 136.17 238.136C136.337 238.136 136.497 238.203 136.615 238.321C136.733 238.439 136.8 238.599 136.8 238.766V248.844C136.8 249.105 136.903 249.355 137.088 249.54C137.272 249.724 137.522 249.828 137.783 249.828C137.912 249.828 138.04 249.802 138.159 249.753C138.278 249.703 138.386 249.631 138.476 249.539C138.567 249.448 138.639 249.339 138.688 249.22C138.736 249.101 138.761 248.973 138.76 248.844V236.551L141.279 235.419L130.359 235.136L133.94 236.742Z" fill="#407BFF"/>
<path d="M164.945 235.306L163.53 235.199C163.834 231.116 163.098 228.066 161.343 226.134C159.927 224.584 157.84 223.77 155.122 223.713C154.576 223.682 154.03 223.773 153.523 223.979C153.017 224.184 152.562 224.5 152.192 224.902C149.581 227.684 150.069 234.287 150.069 234.35L148.654 234.471C148.654 234.173 148.073 227.181 151.116 223.933C151.623 223.387 152.243 222.958 152.932 222.676C153.621 222.393 154.364 222.264 155.108 222.298C158.229 222.362 160.663 223.331 162.348 225.185C164.414 227.415 165.278 230.819 164.945 235.306Z" fill="#263238"/>
<g opacity="0.6">
<path d="M164.945 235.306L163.53 235.199C163.834 231.116 163.098 228.066 161.343 226.134C159.927 224.584 157.84 223.77 155.122 223.713C154.576 223.682 154.03 223.773 153.523 223.979C153.017 224.184 152.562 224.5 152.192 224.902C149.581 227.684 150.069 234.287 150.069 234.35L148.654 234.471C148.654 234.173 148.073 227.181 151.116 223.933C151.623 223.387 152.243 222.958 152.932 222.676C153.621 222.393 154.364 222.264 155.108 222.298C158.229 222.362 160.663 223.331 162.348 225.185C164.414 227.415 165.278 230.819 164.945 235.306Z" fill="white"/>
</g>
<path d="M166.057 233.296V252.977C160.459 255.589 147.189 252.977 147.189 252.977V233.296C155.477 229.934 166.057 233.296 166.057 233.296Z" fill="#263238"/>
<path opacity="0.6" d="M166.057 233.296V252.977C160.459 255.588 147.189 252.977 147.189 252.977V233.296C147.189 233.296 160.041 236.374 166.057 233.296Z" fill="white"/>
<path d="M156.622 234.619V238.158C156.622 238.37 156.706 238.573 156.856 238.723C157.006 238.873 157.21 238.957 157.422 238.957C157.633 238.956 157.836 238.871 157.985 238.721C158.135 238.572 158.22 238.369 158.221 238.158V236.643C158.221 236.476 158.288 236.316 158.406 236.198C158.524 236.08 158.684 236.013 158.851 236.013C159.018 236.013 159.179 236.08 159.297 236.198C159.415 236.316 159.481 236.476 159.481 236.643V246.721C159.48 246.85 159.505 246.978 159.553 247.097C159.602 247.216 159.674 247.325 159.765 247.416C159.855 247.508 159.963 247.58 160.082 247.63C160.201 247.679 160.329 247.705 160.458 247.705C160.587 247.705 160.714 247.679 160.833 247.63C160.952 247.58 161.06 247.508 161.151 247.416C161.242 247.325 161.313 247.216 161.362 247.097C161.411 246.978 161.435 246.85 161.434 246.721V234.428L163.961 233.296L153.041 233.013L156.622 234.619Z" fill="#263238"/>
<path d="M138.342 249.502V256.261H180.288L193.217 252.694V246.268H156.622L138.342 249.502Z" fill="#407BFF"/>
<path opacity="0.3" d="M138.342 249.502H180.111L193.217 246.268V252.694L180.288 256.261H138.342V249.502Z" fill="white"/>
<path opacity="0.3" d="M180.111 249.502L180.288 256.261L193.218 252.694V246.268L180.111 249.502Z" fill="white"/>
<path d="M211.603 81.3862C211.459 81.6753 211.206 81.896 210.9 82.0006C210.594 82.1052 210.26 82.0853 209.968 81.9453L202.226 79.1145L199.593 80.5299C199.129 80.7601 198.6 80.825 198.093 80.7139L197.428 80.5724L195.248 80.1407L198.15 73.8704L200.124 74.6984L200.832 74.9956C201.488 75.2663 202.02 75.7707 202.325 76.411L202.771 77.416L210.443 79.6028C210.636 79.6432 210.82 79.7214 210.983 79.833C211.146 79.9446 211.286 80.0874 211.394 80.2532C211.502 80.4189 211.576 80.6043 211.612 80.7988C211.647 80.9932 211.645 81.1929 211.603 81.3862Z" fill="#263238"/>
<path d="M200.132 74.7126L199.424 76.128C199.424 76.128 198.893 75.9369 198.787 76.128C198.681 76.3191 199.728 77.0197 199.792 77.2815C199.856 77.5434 198.893 77.3381 198.893 77.3381L198.49 78.6474C198.49 78.6474 199.863 79.5462 199.261 79.3551C198.854 79.2571 198.428 79.2743 198.03 79.4047L197.414 80.629L195.234 80.1973L198.136 73.927L200.132 74.7126Z" fill="#407BFF"/>
<path opacity="0.2" d="M211.603 81.3862C211.459 81.6753 211.206 81.896 210.9 82.0006C210.594 82.1052 210.26 82.0853 209.968 81.9453L202.226 79.1145L199.593 80.5299C199.129 80.7601 198.6 80.825 198.093 80.7139L197.428 80.5724L195.248 80.1407L198.15 73.8704L200.124 74.6984L200.832 74.9956C201.488 75.2663 202.02 75.7707 202.325 76.411L202.771 77.416L210.443 79.6028C210.636 79.6432 210.82 79.7214 210.983 79.833C211.146 79.9446 211.286 80.0874 211.394 80.2532C211.502 80.4189 211.576 80.6043 211.612 80.7988C211.647 80.9932 211.645 81.1929 211.603 81.3862Z" fill="white"/>
<path d="M304.886 154.683L303.47 154.577C303.768 150.494 303.032 147.451 301.276 145.519C299.861 143.962 297.738 143.148 295.063 143.091C294.516 143.061 293.969 143.152 293.461 143.358C292.954 143.563 292.498 143.878 292.126 144.28C289.514 147.069 290.003 153.664 290.003 153.735L288.587 153.855C288.587 153.558 288.007 146.559 291.05 143.311C291.558 142.764 292.179 142.335 292.869 142.053C293.56 141.77 294.303 141.642 295.049 141.676C298.162 141.739 300.597 142.709 302.281 144.563C304.355 146.793 305.218 150.197 304.886 154.683Z" fill="#263238"/>
<g opacity="0.6">
<path d="M304.886 154.683L303.47 154.577C303.768 150.494 303.032 147.451 301.276 145.519C299.861 143.962 297.738 143.148 295.063 143.091C294.516 143.061 293.969 143.152 293.461 143.358C292.954 143.563 292.498 143.878 292.126 144.28C289.514 147.069 290.003 153.664 290.003 153.735L288.587 153.855C288.587 153.558 288.007 146.559 291.05 143.311C291.558 142.764 292.179 142.335 292.869 142.053C293.56 141.77 294.303 141.642 295.049 141.676C298.162 141.739 300.597 142.709 302.281 144.563C304.355 146.793 305.218 150.197 304.886 154.683Z" fill="white"/>
</g>
<path d="M305.998 152.674V172.355C300.4 174.966 287.131 172.355 287.131 172.355V152.674C295.418 149.326 305.998 152.674 305.998 152.674Z" fill="#407BFF"/>
<path opacity="0.6" d="M305.998 152.674V172.355C300.4 174.966 287.131 172.355 287.131 172.355V152.674C287.131 152.674 299.983 155.752 305.998 152.674Z" fill="white"/>
<path d="M296.563 153.997V157.536C296.565 157.747 296.65 157.95 296.8 158.099C296.949 158.249 297.152 158.334 297.363 158.335C297.575 158.334 297.777 158.249 297.927 158.099C298.076 157.95 298.161 157.747 298.163 157.536V156.028C298.163 155.861 298.229 155.701 298.347 155.583C298.465 155.465 298.626 155.398 298.793 155.398C298.96 155.398 299.12 155.465 299.238 155.583C299.356 155.701 299.423 155.861 299.423 156.028V166.106C299.423 166.365 299.525 166.613 299.709 166.797C299.892 166.98 300.14 167.083 300.399 167.083C300.528 167.084 300.656 167.059 300.775 167.01C300.894 166.962 301.003 166.89 301.094 166.799C301.186 166.708 301.258 166.6 301.308 166.481C301.357 166.362 301.383 166.235 301.383 166.106V153.813L303.902 152.674L292.982 152.391L296.563 153.997Z" fill="#407BFF"/>
<path d="M276.925 89.5745C281.921 92.2001 285.106 118.237 287.576 122.575C290.046 126.913 296.344 137.833 296.344 137.833C296.344 137.833 298.864 143.013 298.305 145.533C298.305 145.533 293.825 144.825 293.124 144.273C292.424 143.721 291.582 139.482 291.999 138.661C291.999 138.661 283.323 127.805 281.78 124.627C280.237 121.45 272.65 99.3408 272.65 99.3408L276.925 89.5745Z" fill="#EBB376"/>
<path d="M288.503 242.545L283.789 243.38L281.857 236.954L280.088 231.052L285.523 229.156L287.108 236.247L288.503 242.545Z" fill="#E4897B"/>
<path opacity="0.2" d="M287.131 236.388L281.88 237.082L280.104 231.116L285.532 229.184L287.131 236.388Z" fill="black"/>
<path d="M257.031 244.569H252.246L251.461 237.903L250.746 231.781L256.429 230.861L256.755 238.115L257.031 244.569Z" fill="#E4897B"/>
<path opacity="0.2" d="M256.755 238.264L251.461 238.03L250.746 231.852L256.429 230.896L256.755 238.264Z" fill="black"/>
<path d="M287.575 232.652L279.791 234.017C272.006 214.534 266.408 198.271 262.48 184.775C260.357 177.493 258.715 171.017 257.448 165.271L257.802 186.502V234.683H249.968C230.86 143.388 244.391 122.525 244.391 122.525L267.293 118.612C268.199 122.84 268.839 127.12 269.21 131.428L270.244 139.001L279.196 185.228L287.575 232.652Z" fill="#407BFF"/>
<g opacity="0.5">
<path d="M287.575 232.652L279.79 234.017C272.65 216.219 267.384 201.109 263.513 188.342L262.452 184.803C260.534 178.193 259.196 172.249 257.781 166.913C257.719 166.368 257.598 165.831 257.42 165.313L257.781 186.544V234.725H249.968C238.276 178.965 238.786 149.482 240.951 134.974C242.367 125.724 244.391 122.568 244.391 122.568L267.292 118.654C268.198 122.882 268.839 127.163 269.21 131.471L269.522 133.749L270.229 139.043L279.182 185.271L287.575 232.652Z" fill="white"/>
</g>
<path d="M278.609 233.055L288.22 229.87L288.093 233.961L280.145 236.495L278.609 233.055Z" fill="#407BFF"/>
<path opacity="0.6" d="M278.609 233.055L288.22 229.87L288.093 233.961L280.145 236.495L278.609 233.055Z" fill="white"/>
<path d="M248.941 233.501L258.963 232.036L258.12 236.042L249.854 237.153L248.941 233.501Z" fill="#407BFF"/>
<path opacity="0.6" d="M248.941 233.501L258.963 232.036L258.12 236.042L249.854 237.153L248.941 233.501Z" fill="white"/>
<path opacity="0.2" d="M263.57 188.342C263.209 187.132 262.862 185.943 262.508 184.803C260.59 178.193 259.253 172.249 257.837 166.913L257.023 157.09C257.023 157.09 261.914 146.297 260.081 138.689C260.251 139.121 263.485 147.394 262.204 155.674C261.916 166.582 262.372 177.496 263.57 188.342Z" fill="black"/>
<path opacity="0.2" d="M269.523 133.686L240.953 134.91C242.369 125.66 244.393 122.504 244.393 122.504L267.294 118.59C268.2 122.818 268.841 127.099 269.212 131.407L269.523 133.686Z" fill="black"/>
<path d="M264.356 55.1515C265.814 54.9888 269.671 59.235 269.813 60.983C269.954 62.7311 257.824 61.6058 257.824 61.6058C257.824 61.6058 259.459 55.6823 264.356 55.1515Z" fill="#407BFF"/>
<path opacity="0.2" d="M264.356 55.1515C265.814 54.9888 269.671 59.235 269.813 60.983C269.954 62.7311 257.824 61.6058 257.824 61.6058C257.824 61.6058 259.459 55.6823 264.356 55.1515Z" fill="black"/>
<path d="M266.402 79.2135C266.345 79.2646 266.283 79.3096 266.218 79.348C265.334 80.0091 264.329 80.49 263.259 80.7634C260.131 81.4711 257.994 81.0607 256.6 79.6452C254.647 77.5221 254.158 73.7571 254.434 69.2207C254.481 67.4124 254.816 65.6231 255.425 63.92C255.425 63.92 255.425 63.8563 255.425 63.8421C255.425 63.828 255.475 63.7077 255.503 63.6511C255.886 62.6915 256.503 61.8431 257.298 61.183C258.093 60.5229 259.04 60.0722 260.054 59.8719C260.934 59.6743 261.833 59.5723 262.736 59.5676C271.589 59.5039 273.174 74.1605 266.402 79.2135Z" fill="#EBB376"/>
<path opacity="0.2" d="M266.218 79.3482C265.332 79.983 264.329 80.4352 263.267 80.6787C260.139 81.3864 258.002 80.8697 256.607 79.4331C258.478 79.8972 260.449 79.7356 262.22 78.9731C263.479 78.3857 264.888 78.6829 266.218 79.3482Z" fill="black"/>
<path d="M267.117 87.3381C267.662 89.8575 264.399 90.8766 264.399 90.8766C259.063 88.5978 258.072 85.7599 258.072 85.7599C262.524 83.4386 261.236 76.8711 261.236 76.8711L262.142 77.317L268.511 78.5554C268.511 78.5554 266.749 81.9454 266.515 82.7168C265.298 86.779 267.117 87.3381 267.117 87.3381Z" fill="#EBB376"/>
<path d="M255.41 63.8918C255.41 63.8918 254.922 70.0984 260.803 72.7594C260.803 72.7594 263.33 79.2066 267.045 79.2986C272.112 79.4189 276.578 72.2215 274.83 64.8685C272.544 55.3427 258.121 54.5713 255.41 63.8918Z" fill="#263238"/>
<path d="M257.824 70.983C257.824 70.0134 258.61 68.3857 260.11 68.6051C261.61 68.8245 262.53 72.6744 258.695 73.559C258.157 73.651 257.824 72.9999 257.824 70.983Z" fill="#EBB376"/>
<path d="M266.218 57.3242C266.218 57.3242 260.302 55.8309 257.018 58.2088C253.196 60.9901 251.753 63.8705 256.275 68.329C256.275 68.329 266.183 65.1089 269.516 65.7883C271.446 66.1772 273.34 66.7264 275.178 67.4302C275.886 60.8627 269.523 55.9583 266.218 57.3242Z" fill="#263238"/>
<path d="M254.355 61.259C254.355 61.259 251.616 63.1345 252.876 66.0148C254.136 68.8952 257.83 68.9589 257.83 68.9589" stroke="#263238" stroke-width="0.5" stroke-linecap="round" stroke-linejoin="round"/>
<path d="M275.241 70.3673C275.241 70.3673 274.908 75.7388 271.356 76.8782C271.356 76.8782 257.824 73.7289 253.84 60.9124C254.307 60.1169 254.922 59.4179 255.652 58.8529C255.913 58.6406 256.204 58.4212 256.529 58.1948C257.016 57.8609 257.521 57.5561 258.044 57.2818C258.348 57.119 258.681 56.9563 259.027 56.8006C260.728 56.0509 262.509 55.4999 264.335 55.1587C264.335 55.1587 264.547 72.3277 271.681 74.2668C273.228 73.348 274.466 71.9908 275.241 70.3673Z" fill="#407BFF"/>
<path d="M271.701 74.3091C274.249 73.3961 276.485 77.1399 275.551 81.1668C275.551 81.1668 272.402 79.0436 271.701 76.9205C271.701 76.9205 272.197 80.1335 270.166 82.0939C270.166 82.0514 267.993 75.6113 271.701 74.3091Z" fill="#407BFF"/>
<path opacity="0.2" d="M271.701 74.3091C274.249 73.3961 276.485 77.1399 275.551 81.1668C275.551 81.1668 272.402 79.0436 271.701 76.9205C271.701 76.9205 272.197 80.1335 270.166 82.0939C270.166 82.0514 267.993 75.6113 271.701 74.3091Z" fill="black"/>
<g opacity="0.2">
<path d="M268.928 74.939C268.945 74.4728 268.794 74.0161 268.503 73.6513C268.212 73.2866 267.801 73.0379 267.343 72.9503C267.343 72.9503 267.343 72.9503 267.307 72.9503C267.265 72.8371 267.215 72.7309 267.166 72.6248C266.956 72.1937 266.648 71.818 266.267 71.5278C266.152 71.4433 266.026 71.3765 265.892 71.3297C265.844 71.1965 265.758 71.0807 265.644 70.9971C265.522 70.9052 265.373 70.8555 265.219 70.8555C264.743 70.8965 264.27 70.9722 263.804 71.082C263.614 71.1275 263.416 71.1241 263.228 71.0721C263.04 71.0201 262.868 70.9212 262.728 70.7847C262.587 70.6377 262.473 70.4678 262.389 70.2823C262.346 70.2089 262.32 70.1275 262.312 70.0434C262.303 69.9592 262.313 69.8742 262.339 69.7939C262.393 69.6525 262.483 69.5279 262.601 69.433C262.658 69.5248 262.722 69.6123 262.792 69.6949C262.967 69.9229 263.218 70.0809 263.5 70.1407C263.65 70.1562 263.802 70.1403 263.946 70.094C264.089 70.0477 264.222 69.972 264.335 69.8718C264.544 69.7123 264.72 69.5126 264.851 69.2844C264.91 69.2046 264.947 69.1108 264.959 69.0122C264.97 68.9137 264.955 68.8139 264.916 68.7229C264.876 68.6319 264.814 68.5528 264.734 68.4936C264.654 68.4344 264.561 68.3972 264.462 68.3856C263.953 68.3132 263.434 68.392 262.969 68.6121L262.834 68.6758L262.771 68.4988C263.204 68.2815 263.608 68.0105 263.974 67.692C264.368 67.3715 264.682 66.9647 264.894 66.5031C264.964 66.356 265 66.1953 265 66.0325C265 65.8697 264.964 65.7089 264.894 65.5619C264.709 65.3082 264.432 65.1378 264.122 65.0877C263.852 65.0087 263.566 65.0025 263.293 65.0696C263.019 65.1367 262.768 65.2748 262.566 65.4698C262.227 65.8667 262.028 66.3641 261.999 66.8853C261.97 67.2806 261.993 67.6782 262.07 68.0671C261.83 68.1625 261.577 68.2244 261.32 68.2511C260.916 68.2952 260.507 68.2468 260.124 68.1096C259.77 67.9681 259.508 67.6779 259.572 67.4727C259.636 67.2674 259.968 67.0197 260.35 66.9206C260.877 66.8171 261.352 66.5346 261.695 66.1209C261.876 65.8761 261.966 65.5758 261.95 65.2717C261.942 64.9953 261.872 64.7243 261.745 64.4791C261.681 64.3533 261.608 64.2326 261.525 64.1181C261.671 63.9541 261.803 63.779 261.922 63.5944C262.087 63.3458 262.166 63.0501 262.148 62.7523C262.131 62.5769 262.064 62.4102 261.955 62.272C261.846 62.1339 261.699 62.0303 261.532 61.9738C261.262 61.8908 260.975 61.8762 260.697 61.9313C260.458 61.9698 260.221 62.0241 259.989 62.0941C259.145 62.3853 258.282 62.6217 257.406 62.8018C257.02 62.8843 256.618 62.8473 256.253 62.6956C256.083 62.6036 255.984 62.5116 255.97 62.4196C255.96 62.2615 255.997 62.1041 256.076 61.9667C256.273 61.649 256.511 61.3587 256.784 61.1033H256.89C257.842 61.1588 258.798 61.0778 259.728 60.8627C260.633 60.6612 261.515 60.3671 262.36 59.9851C262.81 59.7964 263.221 59.5252 263.57 59.1854C263.622 59.1338 263.665 59.0741 263.698 59.0085C263.744 58.94 263.775 58.8629 263.79 58.782C263.814 58.6893 263.814 58.5917 263.79 58.4989C263.761 58.4107 263.716 58.3289 263.655 58.2583C263.459 58.0719 263.213 57.9444 262.948 57.8903C261.976 57.7953 260.997 57.9691 260.117 58.3928C259.256 58.7511 258.435 59.1995 257.668 59.7303C257.228 60.038 256.811 60.3787 256.423 60.7494C256.198 60.7186 255.985 60.6282 255.807 60.4876C255.733 60.4302 255.675 60.3557 255.637 60.2706C255.599 60.1855 255.582 60.0924 255.588 59.9993C255.596 59.7868 255.637 59.5769 255.708 59.3765C255.896 58.9246 256.19 58.5242 256.564 58.2088C256.239 58.4352 255.948 58.6546 255.687 58.8669C255.597 58.9982 255.522 59.1381 255.46 59.2845C255.407 59.3938 255.371 59.5108 255.354 59.6313C255.324 59.7519 255.305 59.8751 255.297 59.9993C255.293 60.1323 255.318 60.2648 255.371 60.3871C255.423 60.5094 255.502 60.6186 255.602 60.707C255.768 60.8449 255.961 60.9483 256.168 61.0113C255.968 61.2311 255.788 61.4679 255.63 61.719C255.479 61.9798 255.419 62.2837 255.46 62.5824C255.495 62.7529 255.582 62.9085 255.708 63.0283C255.812 63.131 255.931 63.2169 256.062 63.283C256.539 63.4963 257.07 63.558 257.583 63.46L257.852 63.4033C257.555 63.9807 257.447 64.6365 257.541 65.2788C257.58 65.4764 257.694 65.6512 257.859 65.7671C258.008 65.8668 258.183 65.9209 258.362 65.9228C258.877 65.9034 259.381 65.7576 259.827 65.4982C260.285 65.2502 260.716 64.9562 261.115 64.6206C261.115 64.6772 261.186 64.7268 261.214 64.7834C261.302 64.9257 261.349 65.09 261.349 65.2575C261.349 65.4251 261.302 65.5894 261.214 65.7317C260.96 66.0193 260.615 66.2115 260.237 66.2766C259.986 66.3513 259.747 66.4634 259.529 66.6093C259.267 66.7664 259.076 67.0206 258.999 67.317C258.973 67.4801 258.984 67.6469 259.032 67.805C259.08 67.9631 259.163 68.1083 259.275 68.2299C259.473 68.4347 259.715 68.5919 259.982 68.6899C260.459 68.8655 260.97 68.9285 261.476 68.8739C261.765 68.843 262.05 68.7789 262.325 68.6828C262.325 68.7748 262.389 68.8598 262.424 68.9518C262.204 69.1237 262.037 69.3543 261.943 69.617C261.902 69.7554 261.89 69.9004 261.906 70.0437C261.921 70.187 261.965 70.3258 262.035 70.4521C262.145 70.679 262.291 70.8869 262.466 71.0678C262.656 71.2495 262.888 71.3815 263.141 71.4519C263.394 71.5222 263.661 71.5289 263.917 71.4712C264.345 71.3567 264.78 71.2739 265.219 71.2235C265.283 71.2152 265.348 71.2276 265.403 71.2589C265.196 71.3178 265.014 71.4449 264.887 71.6198C264.738 71.8259 264.656 72.0732 264.653 72.3275C264.652 72.4629 264.681 72.5969 264.739 72.7195C264.796 72.842 264.881 72.95 264.986 73.0352C265.061 73.0855 265.15 73.1122 265.241 73.1122C265.331 73.1122 265.42 73.0855 265.495 73.0352C265.619 72.9543 265.719 72.842 265.786 72.7097C265.9 72.4892 265.972 72.2491 265.998 72.002C266.016 71.8515 266.016 71.6995 265.998 71.5491C266.049 71.5722 266.098 71.5982 266.147 71.6269C266.499 71.8833 266.787 72.2175 266.989 72.6035C267.031 72.6743 267.059 72.7522 267.095 72.8229C266.947 72.8262 266.802 72.8625 266.67 72.9291C266.552 72.9804 266.453 73.0674 266.387 73.1778C266.321 73.2883 266.292 73.4166 266.302 73.5448C266.332 73.6677 266.39 73.7819 266.473 73.8779C266.555 73.9738 266.659 74.0489 266.776 74.0968C266.894 74.1588 267.026 74.1881 267.159 74.1817C267.231 74.1668 267.299 74.1316 267.352 74.0803C267.406 74.029 267.444 73.9636 267.463 73.8916C267.523 73.6595 267.523 73.416 267.463 73.1839C267.463 73.106 267.413 73.0352 267.392 72.9574C267.831 73.0296 268.23 73.2553 268.517 73.5943C268.82 73.9741 268.967 74.4549 268.928 74.939ZM263.231 69.065C263.599 68.9019 264.006 68.8431 264.406 68.8952C264.439 68.9011 264.471 68.9157 264.498 68.9376C264.501 68.9682 264.501 68.9991 264.498 69.0296C264.391 69.1886 264.259 69.3296 264.108 69.4472C263.754 69.7727 263.401 69.5321 263.153 69.1216C263.173 69.1041 263.192 69.0852 263.21 69.065H263.231ZM262.679 66.9419C262.696 66.5518 262.837 66.1774 263.082 65.8732C263.212 65.7557 263.371 65.6747 263.543 65.6387C263.714 65.6026 263.892 65.6127 264.059 65.668C264.462 65.7742 264.533 65.8945 264.413 66.2483C264.231 66.6129 263.973 66.934 263.655 67.1896C263.364 67.4329 263.048 67.6463 262.714 67.8265C262.661 67.5373 262.642 67.2427 262.658 66.949L262.679 66.9419ZM257.994 60.1904C258.718 59.67 259.496 59.2287 260.315 58.874C261.086 58.4854 261.944 58.3049 262.806 58.3503C262.981 58.3821 263.146 58.4548 263.287 58.5626C263.287 58.6122 263.337 58.6263 263.323 58.6688C263.321 58.7004 263.309 58.7304 263.287 58.7537C263.271 58.7936 263.247 58.8297 263.217 58.8599C262.913 59.1567 262.558 59.3964 262.169 59.5676C261.358 59.953 260.509 60.2542 259.636 60.4664C258.849 60.6681 258.042 60.7797 257.229 60.799C257.456 60.5937 257.711 60.3885 257.973 60.1974L257.994 60.1904ZM259.508 64.8895C259.163 65.0866 258.779 65.205 258.383 65.2363C258.332 65.235 258.281 65.223 258.234 65.2009C258.234 65.2009 258.234 65.2009 258.199 65.1231C258.181 64.9348 258.181 64.7452 258.199 64.5569C258.239 64.1653 258.384 63.7915 258.617 63.4741C258.712 63.3422 258.844 63.2415 258.996 63.1848C259.149 63.1281 259.315 63.1179 259.473 63.1557C259.847 63.2825 260.183 63.5016 260.449 63.7926C260.541 63.8846 260.619 63.9837 260.704 64.0757C260.33 64.3929 259.921 64.6682 259.487 64.8966L259.508 64.8895ZM261.193 63.5732L260.938 63.2901C260.721 63.0784 260.484 62.8887 260.23 62.7239C260.594 62.5881 260.985 62.5443 261.37 62.5966C261.596 62.6744 261.631 62.9221 261.419 63.3043C261.333 63.4017 261.241 63.4939 261.143 63.5803L261.193 63.5732ZM265.439 72.6602C265.404 72.7342 265.353 72.7995 265.29 72.8512C265.272 72.865 265.249 72.8725 265.227 72.8725C265.204 72.8725 265.181 72.865 265.163 72.8512C265.037 72.7157 264.962 72.5403 264.952 72.3555C264.941 72.1706 264.996 71.988 265.106 71.8392C265.152 71.7588 265.218 71.6918 265.297 71.6446C265.376 71.5974 265.467 71.5718 265.559 71.5703C265.602 71.7389 265.617 71.9135 265.602 72.0869C265.577 72.2891 265.517 72.4855 265.425 72.6672L265.439 72.6602ZM267.251 73.9482C267.201 74.1393 267.017 74.1676 266.819 74.0614C266.723 74.0276 266.636 73.9714 266.566 73.8976C266.496 73.8238 266.444 73.7344 266.415 73.6368C266.405 73.5368 266.426 73.4359 266.477 73.3492C266.528 73.2625 266.606 73.1946 266.699 73.1556C266.825 73.0874 266.966 73.051 267.109 73.0494C267.237 73.333 267.281 73.6473 267.236 73.9553L267.251 73.9482ZM262.65 57.3241C262.289 57.0419 261.872 56.8376 261.428 56.7243C260.983 56.6111 260.52 56.5912 260.067 56.666C259.725 56.6971 259.384 56.7491 259.048 56.8217C258.701 56.9774 258.341 57.1401 258.065 57.3029C258.708 57.0306 259.387 56.8518 260.081 56.7721C260.525 56.6819 260.982 56.6843 261.424 56.7793C261.866 56.8743 262.284 57.0598 262.65 57.3241Z" fill="black"/>
</g>
<path d="M276.926 89.5744C276.926 89.5744 272.043 87.6565 267.662 86.4463C264.246 85.6019 260.774 84.9989 257.273 84.6417C253.965 84.2748 250.635 84.1447 247.308 84.2524C247.4 85.8518 247.471 87.3663 247.535 88.7888C247.62 90.6642 247.676 92.4052 247.719 94.0188C247.797 97.0407 247.783 99.638 247.719 101.938C247.599 106.955 246.993 111.949 245.907 116.849L240.953 128.88L270.585 132.653L268.929 120.834C273.847 106.524 275.949 98.9869 276.714 94.7053C277.598 89.9424 276.926 89.5744 276.926 89.5744Z" fill="#407BFF"/>
<path d="M244.817 254.994C245.537 254.411 246.357 253.965 247.238 253.678C247.238 253.678 249.87 251.066 251.137 243.204L254.584 242.305C255.169 242.163 255.783 242.204 256.344 242.423C256.905 242.642 257.385 243.028 257.719 243.529C257.813 243.669 257.887 243.822 257.938 243.982C258.114 244.825 258.237 245.679 258.306 246.537C258.653 249.198 258.356 255.171 258.356 255.171H257.733L257.485 249.75C257.393 247.91 255.985 250.068 255.582 252.05C255.178 254.032 254.322 256.141 250.288 256.24C245.575 256.332 243.628 256.148 244.817 254.994Z" fill="#263238"/>
<path d="M257.839 243.593C258.065 241.753 258.136 238.554 258.136 238.554L250.479 239.403C250.479 239.403 251.406 243.041 250.641 245.773C254.498 244.761 257.839 243.593 257.839 243.593Z" fill="#263238"/>
<path d="M276.005 254.994C276.727 254.415 277.547 253.969 278.425 253.678C278.425 253.678 281.058 251.066 282.325 243.204L285.771 242.305C286.356 242.162 286.971 242.203 287.532 242.422C288.093 242.641 288.573 243.028 288.907 243.529C289.003 243.667 289.078 243.82 289.126 243.982C289.305 244.825 289.428 245.678 289.494 246.537C289.841 249.198 289.544 255.171 289.544 255.171H288.921L288.673 249.75C288.581 247.91 287.173 250.068 286.769 252.05C286.366 254.032 285.51 256.141 281.476 256.24C276.713 256.332 274.781 256.148 276.005 254.994Z" fill="#263238"/>
<path d="M288.991 243.593C289.217 241.753 289.288 238.554 289.288 238.554L281.666 239.403C281.666 239.403 282.593 243.041 281.829 245.773C285.65 244.761 288.991 243.593 288.991 243.593Z" fill="#263238"/>
<path d="M247.308 84.2526C242.432 84.7621 232.857 97.2461 227.259 96.234C221.661 95.222 215.851 85.1726 215.851 85.1726C215.851 85.1726 213.197 79.6595 211.406 78.2654C209.616 76.8712 203.176 81.5703 203.176 81.5703C203.176 81.5703 207.528 87.4656 211.229 87.7699C211.229 87.7699 220.96 102.809 225.157 104.373C229.354 105.937 249.304 96.4393 249.304 96.4393C252.524 87.7557 247.308 84.2526 247.308 84.2526Z" fill="#EBB376"/>
<path d="M269.523 60.4239C269.828 57.77 276.466 53.3468 280.946 55.9582C285.425 58.5697 285.567 66.1138 282.906 68.5837C280.245 71.0536 283.182 71.9029 283.614 75.8236C284.045 79.7443 278.992 78.1944 279.835 81.1384C280.677 84.0825 283.748 85.0591 281.788 86.7364C279.827 88.4137 275.772 89.5672 274.513 84.7761C273.253 79.9849 276.473 78.067 276.473 76.8781C276.473 75.6891 272.694 78.6898 272.135 73.5447C271.576 68.3997 274.888 65.1796 273.72 64.479C272.552 63.7784 269.205 63.1485 269.523 60.4239Z" fill="#263238"/>
<path opacity="0.1" d="M248.093 112.879L260.301 121.924L269.501 117.401L267.69 124.493L260.301 123.551L246.303 122.171L248.093 112.879Z" fill="black"/>
<path d="M260.302 121.924C257.945 121.966 251.64 123.842 253.883 126.75C256.126 129.659 260.302 124.118 260.302 124.118L254.81 132.15L258.731 132.631L260.854 124.493L263.543 131.733L265.985 131.025L261.505 124.493C261.505 124.493 267.874 129.815 268.129 126.75C268.384 123.686 260.302 121.924 260.302 121.924ZM255.652 125.193C255.327 124.026 259.071 123.552 259.071 123.552C259.071 123.552 255.978 126.361 255.652 125.193ZM266.105 125.477C265.454 126.312 261.767 123.552 261.767 123.552C261.767 123.552 266.756 124.641 266.098 125.477H266.105Z" fill="#407BFF"/>
<path opacity="0.2" d="M260.302 121.924C257.945 121.966 251.64 123.842 253.883 126.75C256.126 129.659 260.302 124.118 260.302 124.118L254.81 132.15L258.731 132.631L260.854 124.493L263.543 131.733L265.985 131.025L261.505 124.493C261.505 124.493 267.874 129.815 268.129 126.75C268.384 123.686 260.302 121.924 260.302 121.924ZM255.652 125.193C255.327 124.026 259.071 123.552 259.071 123.552C259.071 123.552 255.978 126.361 255.652 125.193ZM266.105 125.477C265.454 126.312 261.767 123.552 261.767 123.552C261.767 123.552 266.756 124.641 266.098 125.477H266.105Z" fill="black"/>
</svg>
