<svg width="802" height="661" viewBox="0 0 802 661" fill="none" xmlns="http://www.w3.org/2000/svg">
<path d="M571.116 33.7483C631.945 63.0866 688.72 110.22 734.342 177.073C779.965 243.926 814.435 329.536 797.707 406.008C780.979 482.961 713.052 550.295 634.48 598.39C556.415 646.486 468.212 675.343 395.723 653.7C323.741 632.538 267.98 560.876 198.533 509.895C129.085 458.913 45.4442 429.094 14.5223 374.746C-16.3995 320.398 5.39781 241.521 48.4856 185.249C91.5735 128.978 155.952 95.7916 214.754 66.4533C273.049 36.634 326.275 10.6624 385.584 2.48613C444.894 -5.20916 509.779 4.89091 571.116 33.7483Z" fill="#F6DAFE"/>
</svg>
