<svg width="604" height="553" viewBox="0 0 604 553" fill="none" xmlns="http://www.w3.org/2000/svg">
<path d="M530.525 -58.1197C587.032 -29.5359 639.771 16.3855 682.151 81.519C724.531 146.653 756.551 230.061 741.012 304.566C725.473 379.54 662.374 445.142 589.386 492.001C516.869 538.859 434.935 566.974 367.598 545.888C300.732 525.27 248.934 455.451 184.422 405.781C119.911 356.111 42.2143 327.058 13.4902 274.108C-15.234 221.158 5.01418 144.31 45.0396 89.485C85.0651 34.6604 144.868 2.32793 199.491 -26.2558C253.643 -55.3082 303.086 -80.6118 358.18 -88.5778C413.274 -96.0752 473.548 -86.2349 530.525 -58.1197Z" fill="white"/>
</svg>
